<svg width="128" height="32" viewBox="0 0 128 32" fill="none" xmlns="http://www.w3.org/2000/svg">
<path fill-rule="evenodd" clip-rule="evenodd" d="M49.2411 8.35893C45.5458 3.12763 39.4129 0 33.1799 0C26.9468 0 20.8028 3.1165 17.1187 8.35893L16.9294 8.62609H21.582L21.6265 8.57041C24.7875 5.29807 28.9281 3.57286 33.1799 3.57286C37.4317 3.57286 41.5611 5.29807 44.7333 8.57041L44.7889 8.62609H49.4414L49.2522 8.35893H49.2411Z" fill="#E60013"/>
<path d="M15.0817 25.756L14.9927 25.845C13.568 27.3031 11.9096 28.0711 10.2066 28.0711C6.656 28.0711 4.07374 25.3998 4.07374 21.7268C4.07374 18.0537 6.656 15.3824 10.2066 15.3824C11.9096 15.3824 13.5569 16.1504 14.9927 17.6085L15.0817 17.6976L17.3635 14.9261L17.3078 14.8482C15.4045 12.5998 13.1228 11.509 10.3179 11.509C7.51304 11.509 4.93078 12.4551 3.08313 14.1581C1.06852 16.0057 0 18.6103 0 21.7045C0 24.7988 1.06852 27.4033 3.08313 29.2621C4.94191 30.9761 7.51304 31.9222 10.3179 31.9222C13.1228 31.9222 15.4045 30.8315 17.3078 28.5831L17.3635 28.5163L15.0817 25.7449V25.756Z" fill="#004287"/>
<path d="M23.7189 11.8429H19.6786V31.5549H23.7189V11.8429Z" fill="#004287"/>
<path d="M39.5352 27.2696C38.4556 27.9263 37.4539 28.2602 36.5523 28.2602C35.25 28.2602 34.6601 27.5701 34.6601 26.0341V15.5715H38.7784V11.8651H34.6601V5.73218L30.6977 7.84695V11.8651H27.2806V15.5715H30.6977V26.7019C30.6977 29.7294 32.4897 31.7997 35.1721 31.8553C36.9864 31.8887 38.0883 31.3544 38.7561 30.9537L38.8006 30.9315L39.769 27.1249L39.5352 27.2696Z" fill="#004287"/>
<path d="M46.9259 11.8429H42.8855V31.5549H46.9259V11.8429Z" fill="#004287"/>
<path d="M54.6393 16.5287L54.5836 16.5956V26.791L54.6281 26.8578C55.897 28.8279 57.9673 29.9966 60.1711 29.9966C63.577 29.9966 65.3022 27.1249 65.3022 21.4707C65.3022 16.4174 63.3878 13.5236 60.0598 13.5236C58.0341 13.5236 56.2198 14.5364 54.6393 16.5287ZM54.5836 4.34094V14.8258L55.0288 14.3361C56.7318 12.4662 58.6017 11.5535 60.7721 11.5535C65.0907 11.5535 67.584 15.1597 67.584 21.4484C67.584 27.7371 64.768 32.0001 60.4048 32.0001C58.2789 32.0001 56.576 31.1764 55.0511 29.4067L54.6059 28.8835V31.5771H52.3019V5.67657C52.5022 5.56527 54.0605 4.66371 54.6059 4.36319L54.5836 4.34094ZM72.3812 25.6112C72.3812 28.5385 73.8949 30.1524 76.6553 30.1524C79.0038 30.1524 81.0852 29.0394 82.5321 27.0248L82.5767 26.958V22.6616L82.4431 22.5837C80.9739 21.7489 79.4601 21.4039 77.2563 21.4039C74.2066 21.4039 72.3812 22.9733 72.3812 25.6001V25.6112ZM78.2358 11.5423C82.7102 11.5423 84.8807 13.5903 84.8807 17.7976V31.5548H82.5767V28.6943L82.1314 29.1841C80.4285 31.054 78.4918 31.9667 76.1655 31.9667C74.3513 31.9667 70.1217 31.3656 70.1217 25.7893C70.1217 21.2369 73.8838 19.6119 77.4121 19.6119C79.1819 19.6119 80.9294 20.0237 82.1982 20.7361L82.5767 20.9475V18.1315C82.5767 15.015 81.0518 13.4345 78.0466 13.4345C76.1878 13.4345 74.5182 13.902 72.8041 14.8703C72.6483 14.5253 72.1141 13.3455 71.9694 13.0116C73.7614 12.0655 75.9763 11.5312 78.2358 11.5312V11.5423ZM92.4048 14.3027C93.5958 12.5218 95.4546 11.5423 97.6361 11.5423C101.988 11.5423 104.292 14.3138 104.292 19.5674V31.566H101.977V20.0683C101.977 15.6049 100.43 13.5347 97.0685 13.5347C93.7071 13.5347 91.9374 15.9834 91.9374 20.0683V31.566H89.6334V11.9764H91.9374V15.015L92.4048 14.3138V14.3027ZM111.338 4.34094V23.1514L112.595 21.1924C112.595 21.1924 118.25 13.0115 118.973 11.9764H121.5C120.966 12.6999 116.513 18.8105 116.513 18.8105C116.513 18.8105 122.301 30.8759 122.635 31.566H120.164C120.031 31.2877 115.055 20.7583 115.055 20.7583L111.338 25.9562V31.566H109.034V5.66547C109.234 5.55416 110.792 4.65261 111.338 4.35208V4.34094Z" fill="#004287"/>
<path d="M126.675 9.39417C126.675 10.4182 125.896 11.1973 124.872 11.1973C123.848 11.1973 123.069 10.4182 123.069 9.39417C123.069 8.37017 123.848 7.59101 124.872 7.59101C125.896 7.59101 126.675 8.37017 126.675 9.39417ZM127.02 9.39417C127.02 8.18095 126.097 7.24597 124.872 7.24597C123.648 7.24597 122.724 8.16982 122.724 9.39417C122.724 10.6185 123.648 11.5423 124.872 11.5423C126.097 11.5423 127.02 10.6185 127.02 9.39417ZM125.852 8.89329C125.852 8.40355 125.507 8.18092 125.084 8.18092H124.06V10.5183H124.46V9.61676H124.917L125.373 10.5183H125.841L125.362 9.57223C125.663 9.48318 125.863 9.24945 125.863 8.88215M125.451 8.90443C125.451 9.13817 125.295 9.23833 125.073 9.23833H124.449V8.5705H125.073C125.284 8.5705 125.451 8.68182 125.451 8.90443Z" fill="#004287"/>
</svg>
