<svg width="123" height="32" viewBox="0 0 123 32" fill="none" xmlns="http://www.w3.org/2000/svg">
<g clip-path="url(#clip0_376_2324)">
<path d="M31.9821 15.2877C31.9934 15.5219 32.0001 15.7545 32.0016 15.9864V15.9991C32.0016 23.4013 26.9759 29.63 20.1491 31.4573C19.0288 31.7549 17.8797 31.9312 16.7218 31.9831C16.3731 31.9989 16.0259 32.0034 15.6809 31.9974C7.58344 31.8388 0.96085 25.6648 0.0957863 17.7591C0.0589278 17.4167 0.0334915 17.0732 0.0195199 16.7291C0.00814253 16.4971 0.00163445 16.2649 0 16.0327L0 15.9991C0 7.16435 7.16286 0 16.0004 0C23.5374 0 29.8554 5.2099 31.5534 12.2224C31.7947 13.2279 31.9383 14.2545 31.9821 15.2877ZM24.4459 7.97C23.5097 7.71123 22.8175 7.48904 22.6133 7.05896C22.5167 6.85544 22.5758 6.65054 22.709 6.55475C22.8535 6.44926 23.048 6.48446 23.2748 6.59518C23.6101 6.75752 24.0201 6.99838 24.3352 7.0372C25.2525 7.14792 25.0849 5.74473 23.4364 4.93012C22.4666 4.44841 21.5177 4.25097 20.2321 4.29876C19.7562 4.31828 19.3072 4.301 18.9091 4.23817C18.3082 4.14548 17.5719 3.89033 17.0758 3.78719C16.6964 3.70708 16.4801 3.71764 16.3895 3.84404C16.3058 3.96372 16.3326 4.14025 16.5639 4.43273C17.0279 5.01758 17.759 5.66835 17.3848 7.19059C16.4591 10.9642 17.7268 12.6914 19.0184 12.9749C19.742 13.1357 20.4087 12.9659 20.8158 12.5433C21.2027 12.1386 21.3695 11.4541 20.9969 10.8745C20.4267 9.98663 20.2254 9.21469 20.735 8.89373C21.2005 8.59986 21.8619 8.87058 22.3648 9.99559C23.1692 11.7983 24.2161 12.2762 25.2631 10.9942C26.1206 9.94397 26.087 8.42333 24.4459 7.97ZM21.5327 17.8197C17.1932 15.2197 15.0411 14.1911 13.2848 12.9375C10.3746 10.8626 9.91442 9.31645 9.82535 8.24083C9.66674 6.31539 11.1237 4.58228 12.6068 3.76543C12.7213 3.69588 12.9174 3.53588 12.8321 3.31668C12.746 3.09524 12.4804 3.13791 12.3809 3.15956C9.06354 3.86345 5.83987 6.7844 6.34046 10.6838C6.54025 12.2283 7.52275 14.8366 12.6105 17.8325C14.3459 18.8535 15.844 19.6277 18.196 20.974C21.3808 22.7947 22.8468 25.1404 20.8742 27.6993C20.7245 27.8781 20.5958 28.0636 20.6496 28.2252C20.7103 28.4122 20.9565 28.4444 21.1863 28.3411C22.7001 27.644 23.9505 26.5976 24.5462 25.6274C25.5946 23.919 26.1168 20.5687 21.5327 17.8197ZM16.4569 28.202C16.0723 28.0913 15.4886 27.9103 15.0022 27.6978C14.3885 27.4301 13.8341 27.1361 13.5894 26.8938C13.4292 26.7329 13.4045 26.5512 13.5325 26.3642C14.2659 25.3102 14.4724 24.8928 14.6774 24.3969C15.1129 23.3467 14.6826 23.245 14.0069 23.4395C13.2721 23.6496 12.6906 23.8643 12.2402 24.0334C11.6086 24.269 11.218 24.4134 10.9882 24.3011C10.7488 24.1852 10.7046 23.7693 10.6185 23.0797C10.5579 22.589 10.4547 22.0295 10.323 21.4834C10.0514 20.3892 9.5829 20.5993 9.19602 21.0466C8.7141 21.6315 8.44851 22.3557 8.24861 22.7356C8.14163 22.939 8.01896 23.0064 7.86931 22.9742C7.53555 22.9032 7.0948 22.3863 6.61363 21.7722C5.91091 20.8739 5.59742 20.1834 5.23145 20.1407C4.45396 20.0503 4.79966 21.8889 5.52926 23.4043C6.24094 24.8876 7.34472 26.3478 9.19378 27.5161C11.3032 28.8513 14.4208 29.336 16.3356 29.0667C16.9403 28.9815 17.06 28.3756 16.4569 28.202Z" fill="#0046FF"/>
<path d="M37.8772 17.3303C38.1033 17.3074 38.3747 17.2361 38.6962 17.1123C39.0165 16.9877 39.3547 16.8272 39.7115 16.632C40.0641 16.4365 40.4098 16.2289 40.748 16.0094C41.927 15.2233 42.9163 14.2631 43.7156 13.1269C44.0514 13.594 44.4627 14.0332 44.9521 14.4483C45.4358 14.8608 45.9493 15.2371 46.4885 15.5739C47.437 16.155 48.1742 16.5045 48.7051 16.6203C49.2379 16.7368 49.5743 16.6637 49.7199 16.401L50.6604 14.6342C50.0204 14.4154 49.3817 14.1478 48.7472 13.825C48.1154 13.5066 47.5492 13.1269 47.0449 12.6914C46.5449 12.2539 46.1335 11.7484 45.8138 11.1735C45.4917 10.5979 45.3319 9.95495 45.3319 9.24189V6.33811H41.5559C41.3955 6.33811 41.2858 6.4051 41.2281 6.53459C41.1694 6.6659 41.2065 6.8115 41.336 6.97011C41.5416 7.20488 41.668 7.43347 41.7188 7.65896C41.7708 7.88381 41.7951 8.18002 41.7951 8.54365V9.45863C41.7951 10.1575 41.6544 10.7987 41.3706 11.3823C41.0863 11.964 40.6972 12.4949 40.2022 12.9751C39.706 13.4564 39.1361 13.8888 38.4881 14.2724C37.8413 14.6596 37.1524 14.9903 36.425 15.2673L37.4287 17.1661C37.5024 17.2974 37.6498 17.3519 37.8772 17.3303ZM43.8044 23.4432C43.585 23.276 43.4754 22.9377 43.4754 22.4272V18.4542H39.7651C39.6029 18.4542 39.495 18.5193 39.4386 18.6506C39.3792 18.7819 39.4151 18.9257 39.5482 19.0848C39.7521 19.337 39.8791 19.5638 39.9293 19.7744C39.9795 19.9876 40.0067 20.2806 40.0067 20.6597V22.7562C40.0067 23.4234 40.0934 23.9791 40.2676 24.4134C40.4429 24.8508 40.7105 25.1996 41.076 25.4622C41.4403 25.7249 41.8907 25.9058 42.4297 26.008C42.9674 26.1097 43.6 26.1616 44.3267 26.1616H56.1167V23.6947H44.8743C44.3774 23.6947 44.0225 23.6098 43.8044 23.4432ZM55.7898 19.5688V5.98643H52.0571C51.8967 5.98643 51.7839 6.0515 51.7182 6.17288C51.6526 6.29811 51.6854 6.44051 51.8161 6.60104C52.02 6.834 52.1612 7.0644 52.2424 7.29736C52.3216 7.53096 52.3631 7.83699 52.3631 8.21426V19.5688H55.7898ZM61.6192 24.4137C61.7926 24.8528 62.0635 25.2011 62.4252 25.4631C62.7907 25.7245 63.2423 25.9042 63.7795 26.0089C64.3185 26.1117 64.9522 26.1637 65.6796 26.1637H77.2962V23.695H66.2693C65.7595 23.695 65.3915 23.6045 65.1672 23.4335C64.9411 23.2588 64.829 22.9082 64.829 22.3835V19.3261H61.1181C60.9557 19.3261 60.8473 19.3943 60.789 19.5256C60.7314 19.6544 60.7674 19.7994 60.8981 19.9606C61.0586 20.1508 61.1757 20.3322 61.2475 20.5076C61.3206 20.681 61.3578 20.878 61.3578 21.0961V22.7341C61.3578 23.4168 61.4433 23.9762 61.6192 24.4137ZM63.2137 11.0644C63.6189 10.5619 64.2104 10.3092 64.9824 10.3092C65.7389 10.3092 66.3231 10.5619 66.7388 11.0644C67.1544 11.5674 67.3632 12.1888 67.3632 12.9316C67.3632 13.6292 67.1544 14.2301 66.7388 14.7306C66.3231 15.2356 65.7389 15.4846 64.9824 15.4846C64.2104 15.4846 63.6189 15.2356 63.2137 14.7306C62.8042 14.2301 62.6029 13.6292 62.6029 12.9316C62.6029 12.1888 62.8042 11.5674 63.2137 11.0644ZM59.6 11.4893C59.4191 11.9558 59.3262 12.4725 59.3262 13.0394C59.3262 13.7245 59.4532 14.3621 59.7103 14.9499C59.9636 15.5398 60.3311 16.0546 60.8081 16.4907C61.2895 16.9262 61.8799 17.2688 62.5793 17.5166C63.2781 17.7644 64.0767 17.8884 64.9824 17.8884C65.8838 17.8884 66.6898 17.7644 67.3929 17.5166C68.0998 17.2688 68.6909 16.9262 69.1716 16.4907C69.6517 16.0546 70.0166 15.5398 70.2639 14.9499C70.511 14.3621 70.6343 13.7245 70.6343 13.0394C70.6343 12.4868 70.5364 11.9738 70.3413 11.5004C70.1478 11.0332 69.8774 10.6016 69.5414 10.2236H71.8368V7.82237H66.8806V5.37715H63.1474C62.9851 5.37715 62.8736 5.43913 62.8073 5.56243C62.7428 5.68691 62.7825 5.82942 62.9275 5.98857C63.1325 6.23646 63.2602 6.47304 63.3116 6.69854C63.3623 6.92349 63.3877 7.22451 63.3877 7.60371V7.82237H58.0841V10.2236H60.3744C60.0411 10.6028 59.7809 11.0241 59.6 11.4893ZM77.0322 5.98867H73.299C73.1385 5.98867 73.0258 6.05 72.9601 6.17448C72.8938 6.29779 72.9334 6.43912 73.0827 6.60072C73.2853 6.84734 73.4216 7.08403 73.4966 7.30888C73.5659 7.53373 73.6069 7.83667 73.6069 8.21458V19.8721H77.0322V13.4997H79.519V11.0322H77.0322V5.98867ZM94.0829 11.9052C93.3828 12.2844 92.2045 12.474 90.5472 12.474C88.8851 12.474 87.7086 12.2844 87.0086 11.9052C86.3098 11.5268 85.9597 10.9952 85.9597 10.3112C85.9597 9.64221 86.3098 9.10749 87.0086 8.70728C87.7086 8.30653 88.8851 8.10578 90.5472 8.10578C92.2045 8.10578 93.3828 8.30653 94.0829 8.70728C94.7805 9.10749 95.1293 9.64221 95.1293 10.3112C95.1293 10.9952 94.7805 11.5268 94.0829 11.9052ZM96.6037 7.02536C95.9402 6.62515 95.1075 6.3172 94.1058 6.09726C93.1016 5.87987 91.9152 5.77139 90.5472 5.77139C89.1757 5.77139 87.9923 5.87987 86.9856 6.09726C85.9839 6.3172 85.1537 6.62515 84.497 7.02536C83.8434 7.42675 83.3541 7.90685 83.0344 8.46568C82.7147 9.02759 82.5573 9.64221 82.5573 10.3112C82.5573 10.966 82.7147 11.5701 83.0344 12.1245C83.3541 12.6765 83.8434 13.1524 84.497 13.5532C85.1537 13.9534 85.9839 14.2675 86.9856 14.4924C87.9923 14.7186 89.1757 14.83 90.5472 14.83C91.9152 14.83 93.1016 14.7186 94.1058 14.4924C95.1075 14.2675 95.9402 13.9534 96.6037 13.5532C97.2647 13.1524 97.7603 12.6765 98.0775 12.1245C98.3966 11.5701 98.5576 10.966 98.5576 10.3112C98.5576 9.64221 98.3966 9.02759 98.0775 8.46568C97.7603 7.90685 97.2647 7.42675 96.6037 7.02536ZM98.8423 23.695H87.2283C86.8652 23.695 86.6062 23.6423 86.4533 23.5419C86.2995 23.4403 86.2234 23.1913 86.2234 22.8003V19.5677H82.5125C82.3527 19.5677 82.2436 19.6327 82.1853 19.7653C82.1265 19.8948 82.1618 20.041 82.2932 20.2008C82.4549 20.3904 82.5707 20.5738 82.6438 20.7466C82.7169 20.9213 82.7516 21.1183 82.7516 21.3345V23.3883C82.7516 23.9415 82.8253 24.3975 82.9802 24.7524C83.1351 25.1081 83.3668 25.3936 83.6802 25.6043C83.9919 25.8155 84.3946 25.9606 84.8815 26.0423C85.3685 26.1228 85.939 26.1612 86.5938 26.1612H98.8423V23.695ZM100.938 15.8783H80.1323V18.2567H100.938V15.8783ZM105.958 11.6106C106.033 11.3256 106.15 11.071 106.32 10.8455C106.487 10.6211 106.703 10.4382 106.952 10.3109C107.208 10.1796 107.507 10.1152 107.859 10.1152C108.207 10.1152 108.509 10.1796 108.764 10.3109C109.017 10.4422 109.229 10.6207 109.398 10.8455C109.567 11.0742 109.689 11.3343 109.757 11.6106C109.83 11.8997 109.867 12.197 109.866 12.4953C109.866 12.7852 109.829 13.0702 109.757 13.3459C109.689 13.6148 109.567 13.8671 109.398 14.0875C109.229 14.3068 109.017 14.4821 108.764 14.6122C108.509 14.7423 108.207 14.8092 107.859 14.8092C107.507 14.8092 107.208 14.7423 106.952 14.6122C106.698 14.4821 106.488 14.3068 106.32 14.0875C106.15 13.8694 106.033 13.6216 105.958 13.3459C105.885 13.0683 105.848 12.7824 105.849 12.4953C105.849 12.1874 105.885 11.8944 105.958 11.6106ZM102.979 11.1634C102.842 11.5716 102.771 12.0059 102.771 12.473C102.771 13.1706 102.884 13.8105 103.11 14.3923C103.335 14.9758 103.663 15.4702 104.094 15.8785C104.521 16.2861 105.052 16.6021 105.686 16.8276C106.32 17.0531 107.045 17.1664 107.859 17.1664C108.673 17.1664 109.398 17.0531 110.029 16.8276C110.663 16.6021 111.196 16.2861 111.625 15.8785C112.052 15.4702 112.382 14.9758 112.608 14.3923C112.83 13.8105 112.945 13.1706 112.945 12.473C112.945 12.0059 112.873 11.5716 112.727 11.1634C112.579 10.7551 112.385 10.384 112.138 10.0501H113.601V7.64755H109.715V5.31134H106.111C105.952 5.31134 105.835 5.37705 105.764 5.50718C105.688 5.6403 105.724 5.79209 105.872 5.96744C106.075 6.20094 106.199 6.42899 106.245 6.65448C106.289 6.87934 106.307 7.18909 106.307 7.58312V7.64755H101.834V10.0501H103.558C103.31 10.384 103.117 10.7551 102.979 11.1634ZM114.189 6.11998C114.044 6.11998 113.944 6.1732 113.885 6.2835C113.826 6.39315 113.86 6.54248 113.994 6.73203C114.123 6.9204 114.228 7.1044 114.311 7.28776C114.39 7.46931 114.429 7.75795 114.429 8.14952V16.7726H117.552V12.7136H119.015V17.3642H122.138V5.98857H119.015V10.1356H117.552V6.11998H114.189ZM110.075 21.4128C110.227 21.144 110.477 20.9204 110.827 20.7469C111.176 20.5722 111.63 20.4396 112.192 20.3417C112.753 20.2463 113.439 20.2029 114.257 20.2029C115.069 20.2029 115.757 20.2463 116.32 20.3417C116.877 20.4396 117.329 20.5722 117.673 20.7469C118.015 20.9204 118.261 21.144 118.412 21.4128C118.568 21.6824 118.645 21.9902 118.645 22.3403C118.645 22.6748 118.568 22.9777 118.412 23.2466C118.261 23.5161 118.015 23.7404 117.673 23.9219C117.329 24.104 116.877 24.2434 116.32 24.3394C115.757 24.433 115.069 24.4801 114.257 24.4801C113.439 24.4801 112.753 24.433 112.192 24.3394C111.63 24.2434 111.176 24.104 110.827 23.9219C110.477 23.7404 110.227 23.5161 110.075 23.2466C109.921 22.9777 109.845 22.6748 109.845 22.3403C109.845 21.9902 109.921 21.6824 110.075 21.4128ZM106.374 22.3403C106.374 23.0255 106.54 23.6506 106.876 24.2174C107.211 24.7831 107.713 25.2706 108.381 25.6689C109.054 26.0691 109.872 26.3789 110.847 26.5977C111.824 26.8157 112.961 26.9272 114.257 26.9272C115.521 26.9272 116.644 26.8157 117.627 26.5977C118.612 26.3789 119.431 26.0691 120.096 25.6689C120.757 25.2706 121.265 24.7831 121.611 24.2174C121.962 23.6506 122.136 23.0255 122.136 22.3403C122.136 20.9303 121.458 19.812 120.104 18.9875C118.752 18.1678 116.801 17.7564 114.257 17.7564C111.651 17.7564 109.683 18.1678 108.358 18.9875C107.038 19.812 106.374 20.9303 106.374 22.3403Z" fill="#0046FF"/>
</g>
<defs>
<clipPath id="clip0_376_2324">
<rect width="122.138" height="32" fill="white"/>
</clipPath>
</defs>
</svg>
