<svg width="183" height="30" viewBox="0 0 183 30" fill="none" xmlns="http://www.w3.org/2000/svg">
<g clip-path="url(#clip0_376_2333)">
<path d="M41.4332 15.395L41.0691 15.1603C39.8274 13.92 38.0977 13.3837 35.7849 13.5188C33.8604 13.6369 32.3327 14.4007 31.1663 15.1091V15.0565C31.1809 14.4238 31.2284 13.7924 31.3086 13.1647C31.3883 12.5264 31.4358 11.8846 31.4508 11.2416C31.4732 10.6453 31.3765 10.0505 31.1663 9.492C31.1395 9.42731 31.0935 9.37241 31.0345 9.33475C30.9755 9.2971 30.9063 9.2785 30.8363 9.28149C30.2133 9.29571 29 9.72101 28.7027 9.97989L28.5434 10.3298C28.5334 11.0182 28.3812 12.9413 28.2276 13.1746C28.2347 13.1661 28.1465 13.4065 28.1465 13.4065C27.8649 16.156 27.8649 18.5741 28.1024 20.6451C28.1309 20.8528 28.5292 21.1629 28.8393 21.2767C29.1778 21.4018 30.2346 21.1173 30.8448 20.8898L31.0739 20.8499C31.1201 20.8433 31.1645 20.8276 31.2046 20.8036C31.2447 20.7797 31.2796 20.748 31.3073 20.7103C31.335 20.6727 31.3549 20.63 31.3658 20.5846C31.3768 20.5392 31.3786 20.4921 31.3711 20.446L31.3854 19.85C31.8263 18.0606 33.6072 15.9256 35.7152 15.6041C36.9072 15.4149 37.8488 15.7222 38.5927 16.5315C38.6923 16.6737 38.9099 17.9653 38.1247 19.4446C37.5373 20.5427 36.3695 21.4658 34.8347 22.0433C33.3782 22.5966 31.7765 22.82 29.798 22.7545C29.7155 22.7019 27.9488 21.5028 27.9488 21.5028C26.3842 20.4004 24.4298 19.0292 22.6632 18.3607C22.3531 18.2398 21.7969 17.779 21.4626 17.5073L21.2792 17.3565C20.2607 16.54 18.3205 15.2456 16.763 14.2087C16.763 14.2087 16.0603 13.7365 15.9238 13.6469C15.9238 13.5885 15.9238 13.4705 15.9238 13.4705C15.9693 13.4207 16.9493 12.8347 16.9493 12.8347C18.3191 12.0324 18.9535 11.6398 19.083 11.4364C19.0559 11.4692 19.2636 11.3283 19.2636 11.3283L22.6617 9.40666C25.9233 7.61585 29.6159 5.58181 31.5561 3.57479L31.6514 3.26613L31.694 2.99445C31.8205 2.62706 31.8299 2.2295 31.7211 1.85652C31.7053 1.79341 31.6726 1.7358 31.6264 1.68992C31.5803 1.64405 31.5225 1.61165 31.4593 1.59622C29.943 1.44544 27.9901 2.35294 26.2106 4.02285C25.883 4.32398 25.5148 4.57774 25.1168 4.77672L24.8451 4.91896C22.8836 6.03271 18.4656 8.77654 16.1514 10.2544C16.3703 7.24278 16.764 4.2464 17.3306 1.28045L17.2665 0.92911L17.0276 0.482474L16.8484 0.165278L16.7957 0.151053C16.6236 0.0664564 16.4365 0.0167461 16.2451 0.00478414C16.0537 -0.0071778 15.8618 0.0188464 15.6806 0.0813566L15.2197 0.252045L14.6024 0.475362C14.5445 0.485895 14.4904 0.511586 14.4457 0.549816C14.401 0.588046 14.3672 0.637448 14.3478 0.69299C13.2426 3.36143 12.3223 7.7524 12.1032 11.2657C10.4099 10.2001 8.65752 9.23129 6.85452 8.36404L6.8275 8.34839L6.70944 8.32278C6.34814 8.27727 5.91004 8.0127 5.48901 7.75382C5.44349 7.7268 4.64837 7.20904 4.64837 7.20904L3.3682 6.38831C3.37816 6.38831 3.02967 6.31008 3.02967 6.31008C2.47919 6.40538 1.42235 7.11658 1.10799 7.60162C1.06942 7.66294 1.04918 7.73401 1.04967 7.80645C1.0566 7.91038 1.07618 8.01308 1.10799 8.11227L1.16489 8.37257L1.22463 8.52904C1.83911 9.15916 3.39096 10.2089 4.91151 11.0268L6.6753 11.9613L9.37787 13.4349C9.37787 13.4477 9.83731 13.8019 9.83731 13.8019L10.1545 13.984L10.2128 14.0195L5.29698 17.2939L2.71674 19.0008C2.23391 19.2653 1.73672 19.5028 1.22748 19.712C0.669891 19.9396 0.244592 20.2895 0.0696355 20.6693L-6.10352e-05 20.8186L0.0696355 20.9168L0.268774 21.0676C0.258817 21.0676 0.531918 21.2397 0.531918 21.2397L0.8164 21.4345L1.08523 21.4786C1.53898 21.4943 2.21178 21.2368 3.46777 20.6849C4.62276 20.1757 7.75633 18.2825 9.09766 17.476L9.66662 17.1332C9.90416 17.1531 10.163 16.9525 10.3949 16.7776C10.7726 16.4936 11.1782 16.2486 11.6054 16.0465C11.6167 16.0465 11.8187 15.9298 12.0122 15.8231C12.0122 15.8829 12.0122 15.9753 12.0122 15.9753C12.0719 20.0761 12.3066 23.0575 12.7561 25.3547V25.3945L12.8002 25.487C13.0207 25.8113 13.2724 26.7828 13.4943 27.6391L14.005 29.346C14.0163 29.3673 14.1472 29.5067 14.1472 29.5067C14.4388 29.7058 15.3278 30.0458 15.9209 29.9747L16.0632 29.9576L16.1556 29.7499C16.2052 29.4912 16.2285 29.2282 16.2253 28.9648C16.2253 28.6518 16.2012 28.309 16.1741 27.8866L16.1343 27.2693C15.9465 24.4059 15.7574 20.2753 15.7574 17.5258V17.3081C16.2453 17.6125 18.3718 18.9524 18.3718 18.9524C21.9932 21.3008 27.4609 24.8497 30.7666 25.7871C30.849 25.8132 30.9369 25.8168 31.0212 25.7976C31.1055 25.7783 31.1831 25.7369 31.246 25.6776C31.246 25.6705 31.7538 25.3518 31.7538 25.3518L31.8491 25.312C32.0382 25.2224 32.1648 24.9024 32.1876 24.5567C34.9727 24.4145 38.8573 23.3434 40.9368 20.729C41.6809 19.7834 42.091 18.618 42.1032 17.4148C42.1032 16.5429 41.8614 15.7933 41.4219 15.3794" fill="#F8B500"/>
<path d="M109.099 13.0122V16.2155H116.613V24.5479H114.047V18.433H98.9682V16.2155H106.538V13.0122H97.3978V10.7975H113.926V6.36815H99.2498V4.16626H116.497V10.7819H118.333V13.0122H109.099Z" fill="#7C7266"/>
<path d="M130.514 12.4887H123.468V6.69526H130.514V12.4887ZM133.063 4.46777H120.912V14.7333H133.063V4.46777Z" fill="#7C7266"/>
<path d="M139.347 24.4654H123.227V16.9281H125.793V22.2465H139.347V24.4654Z" fill="#7C7266"/>
<path d="M139.15 3.97559H136.597V17.4444H139.15V3.97559Z" fill="#7C7266"/>
<path d="M162.354 16.9238V14.7119H141.43V16.9238H143.692V24.4639H160.43V22.2478H146.246V16.9238H162.354Z" fill="#7C7266"/>
<path d="M151.899 11.2356C149.252 11.2356 147.111 10.3181 147.111 8.27129C147.111 6.22445 149.252 5.31268 151.899 5.31268C154.546 5.31268 156.688 6.24151 156.688 8.27129C156.688 10.3011 154.54 11.2356 151.899 11.2356ZM151.899 2.97424C147.774 2.97424 144.416 4.72096 144.416 8.27271C144.416 11.8003 147.768 13.574 151.899 13.574C156.03 13.574 159.384 11.8003 159.384 8.27271C159.384 4.71669 156.034 2.97424 151.899 2.97424Z" fill="#7C7266"/>
<path d="M175.572 14.0733H178.06V10.0237H179.481V14.7261H181.973V3.97559H179.481V7.89005H178.06V3.97559H175.572V14.0733Z" fill="#7C7266"/>
<path d="M174.431 4.88162H169.904V3.078H167.343V4.88162H162.792V7.05221H164.615C163.709 7.74635 163.151 8.7591 163.151 10.0947C163.151 12.8798 165.595 14.288 168.614 14.288C171.632 14.288 174.076 12.8798 174.076 10.0947C174.076 8.75626 173.517 7.74635 172.608 7.05221H174.431V4.88162ZM168.614 11.9439C167.049 11.9439 165.787 11.2697 165.787 9.75194C165.787 8.23423 167.05 7.55005 168.614 7.55005C170.177 7.55005 171.434 8.24134 171.434 9.75194C171.434 11.2625 170.167 11.9439 168.614 11.9439Z" fill="#7C7266"/>
<path d="M174.657 23.0543C172.042 23.0543 169.924 22.1383 169.924 20.0786C169.924 18.019 172.042 17.1058 174.657 17.1058C177.273 17.1058 179.391 18.0346 179.391 20.0786C179.391 22.1226 177.272 23.0543 174.657 23.0543ZM174.667 14.8171C170.586 14.8171 167.288 16.5482 167.288 20.08C167.288 23.5792 170.586 25.343 174.667 25.343C178.748 25.343 182.042 23.5792 182.042 20.08C182.042 16.5439 178.738 14.8171 174.667 14.8171Z" fill="#7C7266"/>
<path d="M73.7773 4.20752H83.8039C88.5732 4.20752 91.0653 5.79066 91.0653 9.25564C91.0653 11.7178 89.347 13.4148 87.0584 13.8728V13.9595C90.3399 14.3493 91.8945 16.5014 91.8945 18.9294C91.8945 21.9777 89.6642 24.6077 84.1239 24.6077H73.7773V4.20752ZM77.0261 12.7989H83.6417C86.1011 12.7989 87.909 11.8672 87.909 9.69375C87.909 7.79483 87.0128 6.53031 83.262 6.53031H77.0261V12.7989ZM77.0261 22.2906H83.4383C87.4211 22.2906 88.4751 20.7373 88.4751 18.7587C88.4751 16.416 86.8535 15.1188 83.2676 15.1188H77.0261V22.2906Z" fill="#7C7266"/>
<path d="M51.713 4.20032H54.9689V13.3293L65.9342 4.20032H70.5443L58.9588 13.4133L71.5072 24.6005H66.9001L54.9689 13.6679V24.6005H51.713V4.20032Z" fill="#7C7266"/>
</g>
<defs>
<clipPath id="clip0_376_2333">
<rect width="182.041" height="30" fill="white"/>
</clipPath>
</defs>
</svg>
