<svg width="178" height="25" viewBox="0 0 178 25" fill="none" xmlns="http://www.w3.org/2000/svg">
<g clip-path="url(#clip0_376_1048)">
<path d="M126.442 0.516995H122.998V13.0126H124.987C125.18 13.0246 125.373 12.9957 125.554 12.9277C125.735 12.8597 125.9 12.7541 126.037 12.618C126.175 12.4819 126.282 12.3182 126.351 12.1378C126.421 11.9574 126.452 11.7643 126.442 11.5711V7.74623H129.644V4.67928H126.442V0.516995ZM131.059 15.4925H154.307V12.7935H131.059V15.4925ZM138.534 21.3635V17.3764H134.749V22.1039C134.749 23.4183 135.603 24.518 137.772 24.518H151.792V21.8191H139.034C138.971 21.8227 138.908 21.8136 138.848 21.7925C138.789 21.7714 138.735 21.7387 138.688 21.6963C138.642 21.6538 138.604 21.6025 138.577 21.5454C138.551 21.4882 138.536 21.4264 138.534 21.3635ZM98.4972 3.28163H94.7205V5.91044H98.4929V8.17998H94.7205V10.7825H98.4929V13.4113H100.486C100.679 13.424 100.872 13.3957 101.053 13.3282C101.234 13.2606 101.398 13.1554 101.535 13.0195C101.672 12.8837 101.779 12.7202 101.848 12.54C101.917 12.3598 101.948 12.167 101.937 11.9742V0.516995H98.4929L98.4972 3.28163ZM94.3612 13.7092C90.4925 13.7092 87.3511 16.2241 87.3511 19.3612C87.3511 22.4982 90.51 25.0044 94.3612 25.0131C98.2124 25.0219 101.371 22.4982 101.371 19.3612C101.371 16.2241 98.2256 13.7092 94.3612 13.7092ZM94.3612 22.2529C92.4641 22.2529 90.9438 20.9385 90.9438 19.3612C90.9438 17.7839 92.4641 16.4651 94.3612 16.4651C96.2584 16.4651 97.7655 17.7795 97.7699 19.3612C97.7743 20.9429 96.2496 22.2397 94.3612 22.2397V22.2529ZM142.692 11.0804C146.635 11.0804 149.834 8.62248 149.838 5.54239C149.842 2.4623 146.618 0.0175097 142.692 0.0131284C138.766 0.00874704 135.546 2.47107 135.537 5.54239C135.528 8.61372 138.757 11.0804 142.692 11.0804ZM142.692 2.66823C144.703 2.66823 146.307 3.98263 146.311 5.54239C146.315 7.10215 144.703 8.41657 142.692 8.41657C140.681 8.41657 139.069 7.10215 139.069 5.54239C139.069 3.98263 140.677 2.65946 142.692 2.65508V2.66823ZM94.2824 1.44145V1.31878H82.0146V3.97826H90.2252C89.5155 7.31247 85.6949 10.0508 81.5458 11.1286L81.4275 11.1593L82.0715 13.4376H82.1898C88.3938 12.1407 94.0414 8.55239 94.2824 1.44145ZM110.831 22.1214C110.831 23.4358 111.681 24.5356 113.858 24.5356H123.44C125.631 24.5356 126.459 23.4446 126.459 22.1214V14.8922H110.813L110.831 22.1214ZM114.502 17.5736H122.827V21.381C122.818 21.5026 122.762 21.6161 122.672 21.6977C122.581 21.7794 122.462 21.8228 122.341 21.8191H114.971C114.849 21.8228 114.731 21.7794 114.64 21.6977C114.549 21.6161 114.494 21.5026 114.485 21.381L114.502 17.5736ZM120.833 10.9621L120.89 10.9315V8.45162L120.698 8.56554C119.865 9.07816 118.638 9.25778 117.052 9.25778H111.501C111.439 9.25954 111.377 9.24902 111.319 9.22684C111.261 9.20467 111.208 9.17127 111.163 9.12854C111.117 9.08582 111.081 9.03461 111.056 8.97785C111.03 8.92109 111.016 8.8599 111.015 8.79775V1.30125H107.072V9.52067C107.072 10.8351 107.948 11.9348 110.095 11.9348H116.522C118.288 11.9567 119.646 11.65 120.816 10.9446L120.833 10.9621ZM167.565 8.85032C167.569 8.10975 167.399 7.37855 167.069 6.7157C166.738 6.05284 166.257 5.47686 165.663 5.03417H167.815V2.62004H163.871V0.525753H160.191V2.62004H156.213V5.03417H158.403C157.809 5.47616 157.326 6.05189 156.995 6.71483C156.664 7.37777 156.494 8.10931 156.498 8.85032C156.498 11.5887 158.92 13.7969 162.031 13.7969C165.142 13.7969 167.547 11.5711 167.547 8.83279L167.565 8.85032ZM162.036 11.4134C161.514 11.4221 161.001 11.2754 160.563 10.9918C160.125 10.7083 159.782 10.3009 159.576 9.82134C159.37 9.34182 159.312 8.81193 159.408 8.29914C159.505 7.78635 159.752 7.31384 160.117 6.9418C160.483 6.56976 160.952 6.31501 161.463 6.20997C161.974 6.10494 162.505 6.15437 162.987 6.35198C163.47 6.5496 163.884 6.88645 164.174 7.31966C164.465 7.75286 164.621 8.26283 164.621 8.78461C164.633 9.13006 164.574 9.47432 164.448 9.79607C164.321 10.1178 164.13 10.4102 163.886 10.655C163.642 10.8998 163.35 11.0919 163.029 11.2194C162.708 11.3468 162.364 11.4069 162.018 11.3959L162.036 11.4134ZM174.014 0.525753V5.09989H172.411V0.508223H169.147V12.776H171.009C171.195 12.7888 171.382 12.7617 171.557 12.6966C171.732 12.6315 171.891 12.5299 172.024 12.3985C172.156 12.2671 172.259 12.1089 172.326 11.9345C172.393 11.7601 172.422 11.5735 172.411 11.3871V8.01348H174.014V12.7935H175.876C176.063 12.8063 176.249 12.7792 176.424 12.7141C176.599 12.649 176.759 12.5474 176.891 12.416C177.024 12.2846 177.127 12.1264 177.194 11.952C177.261 11.7777 177.289 11.591 177.278 11.4046V0.508223L174.014 0.525753ZM169.918 13.8232C166.058 13.8232 162.908 16.3161 162.908 19.4225C162.908 22.5289 166.066 25.0087 169.918 25.0175C173.769 25.0263 176.928 22.5289 176.928 19.4225C176.928 16.3161 173.769 13.8144 169.9 13.8056L169.918 13.8232ZM169.918 22.323C168.003 22.323 166.47 21.0086 166.465 19.4225C166.461 17.8365 168.003 16.5177 169.918 16.5177C171.832 16.5177 173.375 17.8321 173.383 19.4225C173.392 21.013 171.832 22.3055 169.9 22.3055L169.918 22.323Z" fill="#655C4F"/>
<path d="M71.0962 5.45477H73.0459C73.1075 5.45477 73.1666 5.4303 73.2101 5.38675C73.2537 5.3432 73.2782 5.28414 73.2782 5.22256V1.54659C73.2782 1.5163 73.2721 1.48632 73.2604 1.45839C73.2487 1.43045 73.2315 1.40514 73.2099 1.38392C73.1883 1.36271 73.1626 1.34603 73.1345 1.33484C73.1063 1.32365 73.0762 1.31819 73.0459 1.31877H70.3076C67.1399 1.31877 65.4618 2.33086 64.5023 4.48211L58.5481 19.0676C58.4283 19.4696 58.1729 19.8176 57.8254 20.0524C57.4779 20.2873 57.0598 20.3945 56.6422 20.3558V1.54659C56.6422 1.5163 56.6361 1.48632 56.6244 1.45839C56.6127 1.43045 56.5955 1.40514 56.5739 1.38392C56.5523 1.36271 56.5266 1.34603 56.4985 1.33484C56.4703 1.32365 56.4402 1.31819 56.41 1.31877H52.0286C51.9983 1.31819 51.9682 1.32365 51.9401 1.33484C51.9119 1.34603 51.8863 1.36271 51.8647 1.38392C51.843 1.40514 51.8259 1.43045 51.8141 1.45839C51.8024 1.48632 51.7964 1.5163 51.7964 1.54659V24.0887C51.7975 24.196 51.841 24.2985 51.9173 24.374C51.9936 24.4494 52.0965 24.4917 52.2039 24.4917H57.1153C60.2787 24.4917 61.7289 23.4797 62.6841 21.3284L68.5638 6.92252C69.037 5.90167 69.7161 5.45477 71.0962 5.45477Z" fill="#D7191F"/>
<path d="M17.6087 12.9075C19.3612 12.1758 20.8159 10.5328 20.8159 7.81633C20.8159 3.77234 17.3458 1.31879 13.1616 1.31879H0.227874C0.16745 1.31879 0.109499 1.34279 0.0667726 1.38552C0.0240461 1.42825 4.21372e-05 1.48619 4.21372e-05 1.54661V5.22257C-0.00054039 5.25286 0.00492208 5.28295 0.0161105 5.3111C0.027299 5.33925 0.0439906 5.36489 0.0652049 5.38651C0.0864192 5.40814 0.111733 5.42531 0.139664 5.43703C0.167595 5.44875 0.197583 5.45479 0.227874 5.45478H12.2678C14.2088 5.45478 15.5232 6.64213 15.5232 8.0836C15.5232 9.52506 14.2088 10.7343 12.2678 10.7343H5.11308V8.01349C5.11368 7.98283 5.10808 7.95238 5.09662 7.92393C5.08516 7.89549 5.06808 7.86964 5.0464 7.84796C5.02471 7.82628 4.99888 7.8092 4.97043 7.79774C4.94199 7.78628 4.91153 7.78069 4.88087 7.78128H0.227874C0.197583 7.78128 0.167595 7.78732 0.139664 7.79904C0.111733 7.81076 0.0864192 7.82793 0.0652049 7.84955C0.0439906 7.87118 0.027299 7.89682 0.0161105 7.92496C0.00492208 7.95311 -0.00054039 7.98321 4.21372e-05 8.01349V24.2552C4.21372e-05 24.3156 0.0240461 24.3735 0.0667726 24.4163C0.109499 24.459 0.16745 24.483 0.227874 24.483H12.9776C17.7445 24.483 21.1576 22.2617 21.1576 17.727C21.1673 16.6478 20.8267 15.5945 20.1867 14.7255C19.5468 13.8564 18.6422 13.2185 17.6087 12.9075ZM12.5176 20.4565H5.11308V15.0237H12.5176C14.5067 15.0237 15.8562 16.2417 15.8562 17.7401C15.8562 19.2385 14.5067 20.4565 12.5176 20.4565Z" fill="#D7191F"/>
<path d="M75.6265 24.2245L68.1213 14.6294C68.1182 14.6239 68.1138 14.6193 68.1084 14.6161C68.103 14.613 68.0969 14.6113 68.0906 14.6113C68.0843 14.6113 68.0782 14.613 68.0728 14.6161C68.0674 14.6193 68.063 14.6239 68.0599 14.6294L66.0401 19.5715C66.0325 19.5856 66.0284 19.6014 66.0284 19.6175C66.0284 19.6336 66.0325 19.6494 66.0401 19.6635L69.3218 24.0449C69.4166 24.1883 69.5475 24.3042 69.7013 24.3811C69.8551 24.458 70.0264 24.4931 70.198 24.483H75.4819C75.5138 24.4881 75.5465 24.4833 75.5756 24.4692C75.6047 24.4551 75.6287 24.4325 75.6445 24.4043C75.6603 24.3761 75.667 24.3437 75.6638 24.3116C75.6606 24.2794 75.6476 24.249 75.6265 24.2245Z" fill="#D7191F"/>
<path d="M29.3726 7.79004H24.9912C24.9297 7.79004 24.8706 7.81451 24.827 7.85806C24.7835 7.9016 24.759 7.96066 24.759 8.02225V24.2639C24.759 24.2942 24.7651 24.3242 24.7768 24.3521C24.7885 24.3801 24.8057 24.4054 24.8273 24.4266C24.8489 24.4478 24.8746 24.4645 24.9027 24.4757C24.9309 24.4869 24.961 24.4923 24.9912 24.4918H29.3726C29.4334 24.4918 29.4918 24.4679 29.5353 24.4253C29.5787 24.3827 29.6037 24.3248 29.6048 24.2639V8.01349C29.6025 7.95344 29.5771 7.8966 29.5338 7.85493C29.4905 7.81326 29.4327 7.79 29.3726 7.79004Z" fill="#D7191F"/>
<path d="M47.4019 1.31877H43.0205C42.9906 1.31877 42.961 1.32466 42.9333 1.33611C42.9057 1.34756 42.8806 1.36435 42.8594 1.3855C42.8383 1.40666 42.8215 1.43177 42.81 1.45942C42.7986 1.48706 42.7927 1.51667 42.7927 1.54659V20.3558C42.3751 20.3945 41.9569 20.2873 41.6094 20.0524C41.2619 19.8176 41.0066 19.4696 40.8868 19.0676L34.9238 4.48211C33.9687 2.33086 32.295 1.31877 29.1229 1.31877H24.9956C24.9654 1.31819 24.9353 1.32365 24.9071 1.33484C24.879 1.34603 24.8533 1.36271 24.8317 1.38392C24.8101 1.40514 24.7929 1.43045 24.7812 1.45839C24.7695 1.48632 24.7634 1.5163 24.7634 1.54659V5.22256C24.7634 5.28414 24.7879 5.3432 24.8314 5.38675C24.875 5.4303 24.9341 5.45477 24.9956 5.45477H28.3298C29.7144 5.45477 30.3891 5.8929 30.8623 6.92252L36.742 21.3284C37.7016 23.4797 39.1474 24.4917 42.3151 24.4917H47.2222C47.3296 24.4917 47.4325 24.4494 47.5088 24.374C47.5851 24.2985 47.6286 24.196 47.6297 24.0887V1.54659C47.6297 1.48617 47.6057 1.42823 47.563 1.3855C47.5203 1.34278 47.4623 1.31877 47.4019 1.31877Z" fill="#D7191F"/>
</g>
<defs>
<clipPath id="clip0_376_1048">
<rect width="177.261" height="25" fill="white"/>
</clipPath>
</defs>
</svg>
