<svg width="136" height="32" viewBox="0 0 136 32" fill="none" xmlns="http://www.w3.org/2000/svg">
<g clip-path="url(#clip0_376_1111)">
<path d="M15.9973 -0.0107413C12.8318 -0.0118044 9.73714 0.925962 7.10468 2.68395C4.47223 4.44194 2.4203 6.94117 1.20843 9.8655C-0.00343909 12.7898 -0.320808 16.0079 0.296488 19.1126C0.913783 22.2173 2.43801 25.0692 4.67635 27.3075C6.91469 29.5459 9.76659 31.0701 12.8713 31.6874C15.976 32.3047 19.1941 31.9873 22.1184 30.7755C25.0427 29.5636 27.5419 27.5117 29.2999 24.8792C31.0579 22.2468 31.9957 19.1521 31.9946 15.9866C31.9953 13.8856 31.5821 11.805 30.7784 9.86383C29.9747 7.92262 28.7963 6.15881 27.3107 4.67318C25.8251 3.18755 24.0613 2.00923 22.1201 1.20554C20.1789 0.401851 18.0983 -0.0114476 15.9973 -0.0107413ZM16.3306 29.0543C13.8477 29.2982 11.3508 28.7567 9.19201 27.5061C7.60014 26.5163 6.32733 25.0886 5.52598 23.3939C4.80029 21.8781 4.45088 20.0397 5.23032 20.131C5.59585 20.174 5.90763 20.8621 6.61181 21.7437C7.0956 22.3565 7.53638 22.8725 7.86966 22.9478C8.0148 22.98 8.13844 22.9101 8.24595 22.7059C8.49775 22.1099 8.81505 21.5438 9.19201 21.018C9.57905 20.5718 10.0467 20.3622 10.3209 21.4534C10.4484 21.9852 10.5471 22.5235 10.6165 23.066C10.7025 23.7595 10.7455 24.1734 10.9874 24.2916C11.2293 24.4099 11.6056 24.2594 12.2345 24.0228C12.6914 23.8508 13.2666 23.6412 14.003 23.4262C14.7395 23.2112 15.1104 23.3348 14.675 24.383C14.3761 25.0836 13.9915 25.7444 13.53 26.3504C13.4985 26.3896 13.475 26.4345 13.4609 26.4828C13.4469 26.531 13.4424 26.5815 13.4479 26.6315C13.4534 26.6814 13.4687 26.7298 13.493 26.7738C13.5172 26.8178 13.5499 26.8566 13.5891 26.888C14.014 27.2266 14.4892 27.4969 14.9975 27.6889C15.4717 27.8886 15.9583 28.0574 16.4542 28.1942C17.0563 28.3716 16.938 28.979 16.3306 29.065V29.0543ZM24.5443 25.614C23.6953 26.8106 22.5328 27.7499 21.1846 28.3286C20.9535 28.4307 20.7062 28.3985 20.6471 28.2157C20.5879 28.0329 20.7223 27.8663 20.8729 27.6782C22.8456 25.1194 21.3781 22.7704 18.1851 20.9481C15.8361 19.6042 14.3363 18.8302 12.6 17.8088C7.51488 14.8147 6.53118 12.2076 6.33229 10.6595C5.83238 6.76232 9.05764 3.83808 12.3743 3.13389C12.471 3.13389 12.7398 3.06939 12.8258 3.28979C12.9118 3.51018 12.7129 3.66606 12.6 3.73594C11.1164 4.55301 9.65968 6.28927 9.81557 8.21368C9.90695 9.28876 10.3531 10.8369 13.2774 12.9118C15.0351 14.1643 17.1853 15.191 21.5233 17.7927C26.13 20.5664 25.5925 23.9207 24.5443 25.6247V25.614ZM25.2592 10.982C24.211 12.2614 23.1682 11.7883 22.3618 9.9822C21.8566 8.85873 21.1954 8.58997 20.7492 8.88024C20.3031 9.17052 20.4374 9.95533 21.0072 10.8638C21.1699 11.1209 21.2408 11.4254 21.2086 11.7278C21.1764 12.0303 21.0429 12.3131 20.8299 12.5302C20.5922 12.751 20.3018 12.9071 19.9864 12.9833C19.671 13.0596 19.3414 13.0535 19.0291 12.9656C17.739 12.6807 16.4704 10.9498 17.4165 7.1816C17.7874 5.65498 17.0563 5.03142 16.594 4.41862C16.3629 4.12834 16.336 3.95096 16.4166 3.8327C16.4972 3.71444 16.723 3.69294 17.1047 3.77357C17.5992 3.88108 18.3356 4.13373 18.9377 4.22511C19.3612 4.28598 19.7895 4.30757 20.2171 4.28961C21.3292 4.20471 22.4436 4.42202 23.4423 4.91855C25.0926 5.73024 25.2592 7.13859 24.3454 7.02571C23.9683 6.92945 23.6064 6.78109 23.2703 6.58492C23.1895 6.52596 23.0939 6.49071 22.9942 6.48311C22.8945 6.47552 22.7947 6.49588 22.7059 6.54192C22.6334 6.60169 22.5841 6.68488 22.5664 6.77713C22.5488 6.86938 22.5639 6.96491 22.6091 7.04721C22.8134 7.47725 23.5068 7.69764 24.4421 7.95567C26.0816 8.42333 26.13 9.94458 25.2592 10.9928V10.982Z" fill="#0046FF"/>
<path d="M16.3306 29.065C13.8477 29.3089 11.3509 28.7674 9.19205 27.5169C7.60017 26.527 6.32736 25.0993 5.52601 23.4047C4.80032 21.8888 4.45091 20.0504 5.23035 20.1418C5.59588 20.1848 5.90766 20.8729 6.61184 21.7544C7.09563 22.3672 7.53641 22.8833 7.86969 22.9585C8.01483 22.9908 8.13847 22.9209 8.24598 22.7166C8.49778 22.1207 8.81508 21.5546 9.19205 21.0288C9.57908 20.5826 10.0467 20.373 10.3209 21.4642C10.4485 21.996 10.5472 22.5343 10.6166 23.0768C10.7026 23.7702 10.7455 24.1841 10.9874 24.3024C11.2293 24.4207 11.6056 24.2701 12.2345 24.0336C12.6915 23.8616 13.2666 23.652 14.0031 23.4369C14.7395 23.2219 15.1104 23.3456 14.675 24.3938C14.3761 25.0944 13.9915 25.7552 13.53 26.3612C13.4985 26.4003 13.4751 26.4453 13.461 26.4935C13.4469 26.5418 13.4425 26.5923 13.448 26.6422C13.4535 26.6922 13.4688 26.7406 13.493 26.7846C13.5172 26.8286 13.5499 26.8674 13.5892 26.8987C14.0141 27.2374 14.4893 27.5076 14.9975 27.6997C15.4717 27.8994 15.9583 28.0682 16.4543 28.205C17.0563 28.3716 16.9381 28.979 16.3306 29.065ZM24.5443 25.6248C23.6954 26.8214 22.5329 27.7607 21.1847 28.3393C20.9535 28.4415 20.7062 28.4092 20.6471 28.2265C20.588 28.0437 20.7224 27.8771 20.8729 27.6889C22.8457 25.1302 21.3782 22.7812 18.1852 20.9589C15.8361 19.615 14.3363 18.841 12.6001 17.8196C7.51491 14.8255 6.53122 12.2184 6.33232 10.6703C5.83241 6.77308 9.05767 3.84884 12.3743 3.14466C12.4711 3.14466 12.7398 3.08016 12.8258 3.30055C12.9119 3.52094 12.713 3.67682 12.6001 3.7467C11.1165 4.56377 9.65971 6.30005 9.8156 8.22446C9.90698 9.29954 10.3531 10.8477 13.2774 12.9226C15.0352 14.1751 17.1853 15.2018 21.5233 17.8035C26.1301 20.5665 25.5925 23.9207 24.5443 25.6248ZM25.2592 10.9928C24.211 12.2722 23.1682 11.7991 22.3619 9.99296C21.8566 8.8695 21.1954 8.60073 20.7492 8.89101C20.3031 9.18128 20.4375 9.96609 21.0073 10.8745C21.1699 11.1316 21.2409 11.4361 21.2087 11.7386C21.1765 12.0411 21.043 12.3238 20.8299 12.5409C20.5922 12.7618 20.3018 12.9179 19.9864 12.9941C19.6711 13.0704 19.3414 13.0642 19.0291 12.9763C17.739 12.6914 16.4704 10.9605 17.4165 7.19236C17.7874 5.66574 17.0563 5.0422 16.594 4.4294C16.3629 4.13912 16.336 3.96173 16.4166 3.84347C16.4973 3.72521 16.723 3.7037 17.1047 3.78434C17.5992 3.89184 18.3357 4.14449 18.9377 4.23587C19.3616 4.29315 19.7899 4.31115 20.2171 4.28963C21.3292 4.20473 22.4436 4.42204 23.4423 4.91856C25.0926 5.73025 25.2592 7.13861 24.3454 7.02573C23.9683 6.92947 23.6065 6.78111 23.2703 6.58494C23.1896 6.52598 23.0939 6.49073 22.9942 6.48313C22.8945 6.47553 22.7947 6.4959 22.7059 6.54194C22.6334 6.6017 22.5841 6.68489 22.5665 6.77715C22.5488 6.8694 22.5639 6.96493 22.6092 7.04723C22.8134 7.47727 23.5068 7.69766 24.4422 7.95568C26.0817 8.42335 26.1301 9.94459 25.2592 10.9928Z" fill="white"/>
<path d="M39.4127 8.20836V5.40774H50.771V8.20836H47.1748V13.8902C47.1748 17.5831 49.2067 19.8677 51.7117 21.5287L50.298 23.4639C49.9754 23.91 48.3897 22.9263 47.5726 22.0985C46.6279 21.1944 45.854 20.1273 45.2881 18.9485C44.8006 20.2251 44.0704 21.3952 43.1379 22.3941C42.0628 23.609 40.4502 24.6787 40.1115 24.2541L38.4021 22.249C41.4285 20.1902 43.24 17.1423 43.24 13.8902V8.20836H39.4127ZM49.0132 12.2292H52.5073V7.17089C52.5673 6.51197 52.3921 5.85307 52.0127 5.31099C51.7117 4.91321 51.8891 4.61755 52.2869 4.61755H56.1034V27.1353H52.5073V15.0835H49.0132V12.2292ZM61.7799 4.46704V27.8018H58.1622V4.46704H61.7799Z" fill="#0046FF"/>
<path d="M87.41 18.2658V21.0664H77.6052V27.7857H73.5844V21.0664H63.7581V18.2658H87.41ZM66.5533 7.87507V5.06909H84.6309V7.87507H77.6428V7.99333C77.6428 10.8477 82.3033 13.229 86.394 14.245L85.4318 16.5779C85.2329 17.1154 81.9808 16.0404 80.5187 15.3362C78.5351 14.3417 76.6752 13.057 75.7077 11.6916C74.7885 13.0839 73.0522 14.2235 71.1923 15.1857C69.5098 16.1049 65.9351 17.2445 65.6663 16.5994L64.7471 14.3202C68.6927 13.3043 73.5252 11.0466 73.5252 7.99333V7.87507H66.5533Z" fill="#0046FF"/>
<path d="M112.196 15.7017V18.3894H88.5443V15.7017H112.196ZM91.5384 21.8996C91.5288 21.417 91.3368 20.956 91.0009 20.6094C90.7052 20.2385 90.9041 19.8891 91.2535 19.8891H95.4733V23.9852C95.4733 24.4529 95.7474 24.7002 96.2419 24.7002H109.804V27.5061H94.5164C92.6082 27.5061 91.5384 26.3665 91.5384 24.6787V21.8996ZM109.449 9.37477C109.449 12.299 106.697 14.5352 100.37 14.5352C94.0434 14.5352 91.2966 12.299 91.2966 9.37477C91.2966 6.45053 94.0488 4.21973 100.37 4.21973C106.692 4.21973 109.449 6.43978 109.449 9.37477ZM105.627 9.37477C105.627 7.86427 104.144 6.86982 100.37 6.86982C96.5967 6.86982 95.1131 7.86427 95.1131 9.37477C95.1131 10.8853 96.6021 11.8797 100.37 11.8797C104.138 11.8797 105.649 10.8906 105.649 9.37477H105.627Z" fill="#0046FF"/>
<path d="M117.797 6.27859C117.797 5.38089 117.749 4.9616 117.303 4.44018C116.98 4.0424 117.201 3.69836 117.572 3.69836H121.668V6.34845H126.081V9.07919H124.42C125.017 9.87191 125.339 10.8387 125.334 11.8314C125.334 15.0567 123.254 17.1639 119.555 17.1639C115.857 17.1639 113.777 15.0137 113.777 11.8314C113.777 10.8421 114.091 9.87839 114.674 9.07919H112.712V6.34845H117.797V6.27859ZM119.555 14.503C121.168 14.503 121.84 13.186 121.84 11.8744C121.84 10.5628 121.168 9.18669 119.555 9.18669C117.943 9.18669 117.276 10.4983 117.276 11.8744C117.276 13.2505 117.948 14.503 119.555 14.503ZM135.789 23.0392C135.789 26.2913 132.768 28.1996 126.839 28.1996C120.91 28.1996 117.889 26.2913 117.889 23.0392C117.889 19.7871 120.915 17.8842 126.839 17.8842C132.763 17.8842 135.789 19.7924 135.789 23.0392ZM131.8 23.0392C131.8 21.5771 130.607 20.588 126.839 20.588C123.071 20.588 121.877 21.5771 121.877 23.0392C121.877 24.5013 123.071 25.4958 126.839 25.4958C130.607 25.4958 131.784 24.5013 131.784 23.0392H131.8ZM135.789 4.46705V17.3681H132.247V12.0841H130.586V16.6962H127.038V6.92363C127.087 6.34244 126.91 5.76473 126.543 5.311C126.242 4.88634 126.441 4.61756 126.764 4.61756H130.586V9.17594H132.247V4.46705H135.789Z" fill="#0046FF"/>
</g>
<defs>
<clipPath id="clip0_376_1111">
<rect width="135.778" height="32" fill="white"/>
</clipPath>
</defs>
</svg>
