<svg width="116" height="46" viewBox="0 0 116 46" fill="none" xmlns="http://www.w3.org/2000/svg">
<mask id="mask0_376_2289" style="mask-type:luminance" maskUnits="userSpaceOnUse" x="41" y="4" width="72" height="38">
<path d="M41.2867 4.81232H112.291V41.4009H41.2867V4.81232Z" fill="white"/>
</mask>
<g mask="url(#mask0_376_2289)">
<path d="M45.7956 27.0825C46.8033 27.0825 47.7427 26.8093 48.4767 26.1775V27.595C47.6572 28.1586 46.6835 28.398 45.6589 28.398C43.08 28.398 41.2866 26.6043 41.2866 24.0253C41.2866 21.4631 43.131 19.6697 45.6929 19.6697C46.7006 19.6697 47.64 19.9602 48.3917 20.5237V22.0783C47.7255 21.3609 46.8033 20.985 45.7784 20.985C43.985 20.985 42.7208 22.232 42.7208 24.0253C42.7208 25.8187 44.0022 27.0825 45.7956 27.0825ZM51.3976 28.2438H50.0141V17.1543L51.3976 18.0095V21.2582C52.0295 20.2848 53.0372 19.6696 54.3181 19.6696C56.4363 19.6696 57.5634 21.2242 57.5634 23.2908V28.2438H56.163V23.53C56.163 21.8899 55.4456 21.0192 53.9767 21.0192C52.4225 21.0192 51.3976 22.3514 51.3976 24.0253V28.2438ZM66.1545 26.8094C65.4542 27.7999 64.3784 28.3979 63.0632 28.3979C60.6034 28.3979 58.8447 26.5702 58.8447 24.0766C58.8447 21.5315 60.6036 19.6699 63.0632 19.6699C64.3784 19.6699 65.4542 20.2849 66.1545 21.2926V19.8237H67.5552V28.244H66.1545V26.8094ZM60.2793 24.0594C60.2793 25.8016 61.4917 27.0825 63.2002 27.0825C64.9251 27.0825 66.1545 25.8016 66.1545 24.0594C66.1545 22.2832 64.9251 20.9851 63.2002 20.9851C61.4917 20.9851 60.2793 22.2832 60.2793 24.0594ZM71.0906 28.2438H69.707V19.8235H71.0906V21.6169C71.7564 20.3698 72.8328 19.6696 74.1646 19.6696V21.2582C72.4913 21.0192 71.0906 22.1464 71.0906 24.2301V28.2438ZM88.3413 24.5717H81.697C81.9018 26.0917 83.0977 27.0994 84.7712 27.0994C85.8476 27.0994 86.8891 26.7924 87.7777 26.16V27.4924C86.8722 28.1071 85.8478 28.3976 84.7712 28.3976C82.1238 28.3976 80.2284 26.6897 80.2284 24.1106C80.2284 21.5826 81.8339 19.6699 84.3786 19.6699C86.8039 19.6699 88.3924 21.4633 88.3924 23.8714C88.3924 24.1108 88.3751 24.3495 88.3413 24.5717ZM81.7141 23.4445H86.9237C86.7866 22.0099 85.8816 20.951 84.3959 20.951C82.8585 20.951 81.9363 22.0269 81.7141 23.4445ZM91.2959 28.2438H89.9122V19.8235H91.2959V21.6169C91.9616 20.3698 93.038 19.6696 94.3698 19.6696V21.2582C92.6965 21.0192 91.2959 22.1464 91.2959 24.2301V28.2438ZM102.586 24.5717H95.9412C96.1463 26.0917 97.3421 27.0994 99.0157 27.0994C100.092 27.0994 101.133 26.7924 102.022 26.16V27.4924C101.117 28.1071 100.092 28.3976 99.0157 28.3976C96.3682 28.3976 94.4727 26.6897 94.4727 24.1106C94.4727 21.5826 96.0779 19.6699 98.623 19.6699C101.048 19.6699 102.637 21.4633 102.637 23.8714C102.637 24.1108 102.62 24.3495 102.586 24.5717ZM95.9584 23.4445H101.168C101.031 22.0099 100.126 20.951 98.6402 20.951C97.1027 20.951 96.1806 22.0269 95.9584 23.4445ZM110.891 26.7978C110.208 27.8055 109.114 28.4207 107.799 28.4207C105.339 28.4207 103.58 26.593 103.58 24.0994C103.58 21.5544 105.339 19.6927 107.799 19.6927C109.114 19.6927 110.207 20.3245 110.891 21.3494V17.1568L112.291 18.012V28.2433H110.891V26.7978ZM105.015 24.0822C105.015 25.8244 106.228 27.1053 107.936 27.1053C109.661 27.1053 110.89 25.8244 110.89 24.0822C110.89 22.3061 109.661 21.0079 107.936 21.0079C106.228 21.0079 105.015 22.3061 105.015 24.0822ZM76.5825 25.4449C76.5825 26.6236 77.2999 27.0845 78.2054 27.0845C78.8883 27.0845 79.5715 26.8968 80.1693 26.4697V27.819C79.5885 28.246 78.7856 28.417 78.0856 28.417C76.2921 28.417 75.199 27.6141 75.199 25.3422V17.1526L76.5825 18.0078V25.4449Z" fill="#525455"/>
</g>
<mask id="mask1_376_2289" style="mask-type:luminance" maskUnits="userSpaceOnUse" x="41" y="4" width="72" height="38">
<path d="M41.2867 4.81232H112.291V41.4009H41.2867V4.81232Z" fill="white"/>
</mask>
<g mask="url(#mask1_376_2289)">
<path d="M78.8186 19.7137C78.6466 19.6002 78.4454 19.5388 78.2393 19.5371C78.0332 19.5353 77.8311 19.5932 77.6571 19.7037C76.9971 20.1231 76.9963 21.086 77.6554 21.5063L77.6851 21.525C77.857 21.6347 78.0568 21.6928 78.2608 21.6925C78.4648 21.6923 78.6644 21.6336 78.8361 21.5235L80.2121 20.641L78.8186 19.7137ZM44.1729 14.9398C45.1634 14.9398 45.8808 14.5129 45.8808 13.7444C45.8808 13.2831 45.6421 12.9244 45.0097 12.668L43.0115 11.8655C41.9866 11.4213 41.4229 10.8406 41.4229 9.74743C41.4229 8.27878 42.6017 7.35625 44.3095 7.35625C45.3001 7.35625 46.2223 7.62978 46.8713 8.12502V9.57645C46.1029 8.89348 45.1634 8.50095 44.3267 8.50095C43.4385 8.50095 42.8065 8.9107 42.8065 9.59367C42.8065 10.1061 43.0453 10.4136 43.7115 10.6698L45.7103 11.4725C46.7858 11.9338 47.2815 12.583 47.2815 13.4879C47.2815 15.0936 45.9834 16.0841 44.1557 16.0841C43.0453 16.0841 42.0376 15.7767 41.3036 15.2303V13.7272C42.1915 14.5642 43.1825 14.9398 44.1729 14.9398ZM49.9118 13.1125C49.9118 14.2912 50.6292 14.7521 51.5342 14.7521C52.2176 14.7521 52.9006 14.5644 53.4985 14.1374V15.4866C52.9178 15.9136 52.1149 16.0845 51.4147 16.0845C49.6213 16.0845 48.5282 15.2816 48.5282 13.0098V5.66837L49.9118 4.81226V13.1125ZM61.2356 14.4961C60.5354 15.4866 59.4594 16.0845 58.144 16.0845C55.6843 16.0845 53.9255 14.2569 53.9255 11.7633C53.9255 9.21821 55.6845 7.35656 58.144 7.35656C59.4594 7.35656 60.5354 7.97111 61.2356 8.97928V7.51032H62.6363V15.9308H61.2356V14.4961ZM55.3602 11.7461C55.3602 13.4883 56.5728 14.7692 58.281 14.7692C60.0062 14.7692 61.2356 13.4883 61.2356 11.7461C61.2356 9.96991 60.0062 8.67177 58.281 8.67177C56.5727 8.67177 55.3602 9.96976 55.3602 11.7461ZM66.1715 15.9305H64.788V7.51016H66.1715V8.94484C66.8034 7.97142 67.8111 7.35625 69.0921 7.35625C71.21 7.35625 72.3373 8.91086 72.3373 10.9775V15.9305H70.937V11.2167C70.937 9.57661 70.2197 8.7059 68.7506 8.7059C67.1964 8.7059 66.1715 10.038 66.1715 11.7119V15.9305ZM80.9285 14.4615C80.2455 15.4694 79.1523 16.0844 77.8369 16.0844C75.3773 16.0844 73.6184 14.2567 73.6184 11.7631C73.6184 9.21806 75.3775 7.35641 77.8369 7.35641C79.1523 7.35641 80.2453 7.98818 80.9285 9.0131V5.66791L82.329 4.81303V15.9308H80.9285V14.4615ZM75.0531 11.7461C75.0531 13.4883 76.2654 14.7692 77.9739 14.7692C79.6991 14.7692 80.9285 13.4883 80.9285 11.7461C80.9285 9.96991 79.6991 8.67177 77.9739 8.67177C76.2656 8.67177 75.0531 9.96976 75.0531 11.7461ZM106.549 14.4615C105.866 15.4694 104.772 16.0844 103.457 16.0844C100.997 16.0844 99.2384 14.2567 99.2384 11.7631C99.2384 9.21806 100.997 7.35641 103.457 7.35641C104.772 7.35641 105.865 7.98818 106.549 9.0131V5.66791L107.949 4.81303V15.9308H106.549V14.4615ZM100.673 11.7461C100.673 13.4883 101.886 14.7692 103.594 14.7692C105.319 14.7692 106.549 13.4883 106.549 11.7461C106.549 9.96991 105.319 8.67177 103.594 8.67177C101.886 8.67177 100.673 9.96976 100.673 11.7461ZM91.1422 14.4961C90.442 15.4866 89.366 16.0845 88.0508 16.0845C85.591 16.0845 83.8323 14.2569 83.8323 11.7633C83.8323 9.21821 85.5912 7.35656 88.0508 7.35656C89.366 7.35656 90.442 7.97111 91.1422 8.97928V7.51032H92.5428V15.9308H91.1422V14.4961ZM85.2669 11.7461C85.2669 13.4883 86.4793 14.7692 88.1878 14.7692C89.9128 14.7692 91.1422 13.4883 91.1422 11.7461C91.1422 9.96991 89.9128 8.67177 88.1878 8.67177C86.4794 8.67177 85.2669 9.96976 85.2669 11.7461ZM96.0784 15.9305H94.6948V7.51016H96.0784V9.30339C96.7445 8.05691 97.8206 7.35625 99.1526 7.35625V8.94484C97.479 8.7059 96.0784 9.83307 96.0784 11.9167V15.9305Z" fill="#525455"/>
</g>
<mask id="mask2_376_2289" style="mask-type:luminance" maskUnits="userSpaceOnUse" x="41" y="4" width="72" height="38">
<path d="M41.2867 4.81232H112.291V41.4009H41.2867V4.81232Z" fill="white"/>
</mask>
<g mask="url(#mask2_376_2289)">
<path d="M51.8622 9.3046C52.0345 9.41762 52.2358 9.47847 52.4418 9.47981C52.6479 9.48116 52.8499 9.42296 53.0237 9.3122C53.6828 8.89097 53.6812 7.92811 53.0207 7.50951L52.9914 7.49074C52.8192 7.38139 52.6193 7.32367 52.4153 7.32441C52.2114 7.32515 52.0119 7.38433 51.8405 7.49493L50.4665 8.38068L51.8622 9.3046ZM45.6976 36.6667L43.6973 35.863C43.0301 35.6066 42.7909 35.2989 42.7909 34.7861C42.7909 34.1019 43.4236 33.6917 44.3128 33.6917C45.1504 33.6917 46.0906 34.0852 46.86 34.7689V33.3153C46.2106 32.8198 45.287 32.5461 44.2955 32.5461C42.5859 32.5461 41.406 33.4695 41.406 34.9399C41.406 36.034 41.9705 36.6155 42.9962 37.0597L44.9965 37.8634C45.6294 38.1199 45.8686 38.479 45.8686 38.9406C45.8686 39.71 45.1504 40.1373 44.159 40.1373C43.1671 40.1373 42.1754 39.761 41.2863 38.9235V40.4282C42.0217 40.9754 43.0301 41.2829 44.1418 41.2829C45.9712 41.2829 47.2706 40.291 47.2706 38.6843C47.2706 37.7779 46.7744 37.1283 45.6976 36.6667ZM49.6763 36.906C49.6763 35.111 50.9412 33.8629 52.7368 33.8629C53.7625 33.8629 54.6861 34.2391 55.3526 34.9568V33.4011C54.6005 32.8372 53.6598 32.5462 52.6513 32.5462C50.0865 32.5462 48.2404 34.3413 48.2404 36.9061C48.2404 39.4878 50.0353 41.2832 52.6169 41.2832C53.643 41.2832 54.6174 41.044 55.4381 40.4795V39.0604C54.7032 39.6931 53.7625 39.9668 52.7539 39.9668C50.9585 39.9665 49.6763 38.7011 49.6763 36.906ZM79.4228 38.7374H78.1926V41.2997H85.0823V40.2589H79.4228V38.7374ZM77.3214 37.1609H85.6988V38.1954H77.3214V37.1609ZM94.0612 32.552V34.6689H93.0757V32.552H91.9833V37.6705H93.0757V35.6313H94.0612V37.8868H95.1221V32.552H94.0612ZM91.3388 33.0156H89.7452V32.2336H88.536V33.0156H86.9424V33.8895H91.3388V33.0156ZM68.6909 36.3398C69.2255 36.7533 69.8424 36.9634 70.5237 36.9634C71.2124 36.9634 71.831 36.7517 72.3624 36.3339C72.8973 35.9136 73.1685 35.3593 73.1685 34.6864C73.1685 34.0135 72.8973 33.4609 72.3624 33.0438C71.831 32.6299 71.2121 32.42 70.5237 32.42C69.8351 32.42 69.2167 32.63 68.6853 33.0438C68.1504 33.4609 67.8788 34.0135 67.8788 34.6864C67.879 35.3664 68.1522 35.9229 68.6909 36.3398ZM69.4561 33.7612C69.7658 33.509 70.1249 33.3811 70.5238 33.3811C70.9227 33.3811 71.2822 33.5069 71.5919 33.7549C71.8983 34.0005 72.0538 34.3055 72.0538 34.6613C72.0538 35.0179 71.8978 35.3301 71.5911 35.5881C71.2816 35.8489 70.9224 35.9808 70.524 35.9808C70.1256 35.9808 69.7664 35.8488 69.4567 35.5881C69.15 35.3301 68.9945 35.0183 68.9945 34.6613C68.9944 34.3137 69.1494 34.0104 69.4561 33.7612ZM79.0213 35.9687C79.6279 36.3412 80.4652 36.5297 81.5097 36.5297C82.548 36.5297 83.3856 36.3375 83.9991 35.9577C84.62 35.5738 84.9351 35.0724 84.9351 34.4675C84.9351 33.877 84.62 33.3827 83.9991 32.9984C83.3852 32.6192 82.548 32.4263 81.5097 32.4263C80.4652 32.4263 79.6274 32.6224 79.0203 33.0092C78.4059 33.4005 78.0947 33.8912 78.0947 34.4673C78.0949 35.0867 78.4065 35.592 79.0213 35.9687ZM79.9092 33.7165C80.3514 33.5045 80.89 33.3968 81.5106 33.3968C82.1458 33.3968 82.6845 33.5065 83.1115 33.722C83.5256 33.9314 83.7358 34.1857 83.7358 34.4791C83.7358 34.7565 83.5377 35.0054 83.1472 35.2182C82.7453 35.4375 82.1947 35.5489 81.5105 35.5489C80.8266 35.5489 80.2722 35.4355 79.8633 35.212C79.4662 34.9954 79.2647 34.7444 79.2647 34.4665C79.2648 34.1741 79.4813 33.9218 79.9092 33.7165ZM89.1657 37.8027C89.8068 37.8027 90.3382 37.6355 90.7441 37.3061C91.1535 36.9739 91.361 36.5356 91.361 36.0042C91.361 35.4645 91.1565 35.0302 90.7534 34.7137C90.3542 34.4008 89.8233 34.2419 89.1754 34.2419C88.5478 34.2419 88.0235 34.4003 87.6177 34.7134C87.2076 35.0297 87 35.4558 87 35.98C87 36.5193 87.2092 36.9634 87.6214 37.2999C88.0307 37.6338 88.5501 37.8027 89.1657 37.8027ZM88.3064 35.3892C88.5439 35.2262 88.8368 35.1436 89.1769 35.1436C89.5411 35.1436 89.8377 35.2257 90.0582 35.3878C90.2755 35.5479 90.3812 35.7482 90.3812 35.9988C90.3812 36.2515 90.2786 36.4598 90.0678 36.6354C89.8566 36.8118 89.5566 36.9012 89.1769 36.9012C88.8292 36.9012 88.5349 36.8115 88.302 36.6337C88.0716 36.458 87.9593 36.2508 87.9593 35.9988C87.9595 35.7487 88.0729 35.5492 88.3064 35.3892ZM93.997 38.5347C93.3773 38.2289 92.456 38.0735 91.2581 38.0735C90.0679 38.0735 89.1417 38.2221 88.5043 38.5147C87.8549 38.8135 87.5255 39.2132 87.5255 39.703C87.5255 40.1919 87.8507 40.6035 88.4926 40.9248C89.1228 41.2407 90.0459 41.4011 91.2367 41.4011C92.4343 41.4011 93.3595 41.2457 93.9861 40.9397C94.6242 40.628 94.9482 40.2251 94.9482 39.7423C94.9482 39.2529 94.6281 38.8469 93.997 38.5347ZM92.9345 40.2929C92.5123 40.4443 91.9456 40.521 91.2497 40.521C90.5232 40.521 89.937 40.4443 89.5075 40.2929C89.0976 40.1483 88.8896 39.9523 88.8896 39.7105C88.8896 39.4624 89.097 39.2706 89.5065 39.1398C89.9359 39.003 90.5187 38.9341 91.2384 38.9341C91.9505 38.9341 92.5235 39.003 92.9418 39.1398C93.3399 39.2701 93.5418 39.4658 93.5418 39.7218C93.5415 39.9561 93.3373 40.1483 92.9345 40.2929ZM74.3351 33.264V36.7848H75.5439V32.5525H75.5341L74.3351 33.264ZM68.4141 38.4117H74.4969V39.0238H68.4141V41.3028H75.5341V40.4401H69.4415V39.8312H75.5341V37.4861H68.4141V38.4117ZM60.5109 36.1431V33.8692H61.9249V32.7965H57.8954V33.8692H59.2916V36.1431C59.2551 38.7284 57.4029 40.6629 57.3851 40.6792L57.359 40.7026L58.2252 41.4011L58.244 41.3806C58.9869 40.5871 59.5488 39.5674 59.9142 38.3504H59.9223C60.2876 39.5676 60.8496 40.5871 61.5925 41.3806L61.6114 41.4011L62.4779 40.7026L62.4515 40.6792C62.4332 40.6628 60.5466 38.7284 60.5109 36.1431ZM65.039 41.3014H66.1951V33.2405L65.039 32.5545V41.3014Z" fill="#525455"/>
</g>
<path d="M62.9964 35.7628H61.7504V36.9217H62.9964L63.0035 41.3013H64.1595V33.2478L63.004 32.562L62.9964 35.7628Z" fill="#525455"/>
<path d="M24.4929 43.7131L6.60594 32.0677C6.60594 32.0677 4.36216 30.7781 3.84908 28.3759C3.12748 25.0015 5.50593 22.1097 5.50593 22.1097L28.7206 37.2286C30.5109 38.3956 30.9999 40.7831 29.8488 42.5841C28.6663 44.4347 26.2363 44.8423 24.4929 43.7131Z" fill="#38D200"/>
<path d="M7.54998 19.6144C7.54998 19.6144 4.81018 17.9599 4.81018 14.1334C4.81018 10.3198 7.54905 8.68606 7.54905 8.68606L17.3277 2.28612C19.1203 1.12063 21.5172 1.62937 22.6822 3.42135C23.8476 5.21349 23.3391 7.61103 21.5464 8.77605L13.3048 14.1425L27.3476 23.2885C27.3476 23.2885 29.8753 24.737 30.3732 27.1812C31.0684 30.5917 28.721 33.4019 28.721 33.4019L7.54998 19.6144Z" fill="#0473EA"/>
<path d="M25.9562 10.1329C25.0381 10.1329 24.384 10.4224 23.7467 10.8374L18.9736 13.9465L23.7468 17.0554C24.3907 17.4704 25.0661 17.7604 25.9563 17.7604C28.0625 17.7604 29.7699 16.0525 29.7699 13.9465C29.7699 11.8406 28.0623 10.1324 25.9562 10.1329Z" fill="#38D200"/>
<path d="M7.49938 44.33C8.4174 44.33 9.07136 44.0405 9.70872 43.6255L14.4825 40.5164L9.70872 37.4075C9.06485 36.993 8.38963 36.7025 7.49938 36.7025C5.39322 36.7025 3.68579 38.4103 3.68579 40.5164C3.68579 42.6221 5.39322 44.3305 7.49938 44.33Z" fill="#0473EA"/>
</svg>
