<svg width="148" height="38" viewBox="0 0 148 38" fill="none" xmlns="http://www.w3.org/2000/svg">
<g clip-path="url(#clip0_376_1893)">
<path d="M104.886 37.4976H103.049C102.946 37.4997 102.847 37.4617 102.772 37.3917C102.697 37.3217 102.652 37.2252 102.647 37.1228V31.9572H91.583C91.4806 31.9583 91.3816 31.92 91.3067 31.8501C91.2319 31.7803 91.1868 31.6844 91.1811 31.5823V30.6751C91.1809 30.6236 91.1915 30.5726 91.212 30.5253C91.2325 30.4781 91.2625 30.4355 91.3002 30.4003C91.3379 30.3652 91.3825 30.3381 91.4312 30.3209C91.4799 30.3037 91.5315 30.2966 91.583 30.3002H96.8653V27.8899H88.5437C88.4406 27.892 88.3407 27.8541 88.265 27.7842C88.1893 27.7143 88.1438 27.6178 88.1379 27.515V26.6041C88.1378 26.5522 88.1484 26.5009 88.1691 26.4534C88.1899 26.4058 88.2203 26.3631 88.2584 26.3278C88.2965 26.2926 88.3416 26.2656 88.3907 26.2487C88.4398 26.2317 88.4919 26.2251 88.5437 26.2292H107.738C107.789 26.2256 107.841 26.2326 107.89 26.2499C107.938 26.2671 107.983 26.2941 108.021 26.3293C108.058 26.3645 108.088 26.407 108.109 26.4543C108.13 26.5016 108.14 26.5526 108.14 26.6041V27.515C108.134 27.6171 108.089 27.713 108.014 27.7829C107.939 27.8527 107.84 27.891 107.738 27.8899H99.5778V30.3002H104.886C104.938 30.2966 104.99 30.3037 105.038 30.3209C105.087 30.3381 105.131 30.3652 105.169 30.4003C105.207 30.4355 105.237 30.4781 105.257 30.5253C105.278 30.5726 105.289 30.6236 105.288 30.6751V37.1228C105.283 37.2249 105.238 37.3208 105.163 37.3906C105.088 37.4604 104.989 37.4988 104.886 37.4976Z" fill="#77787B"/>
<path d="M147.347 27.6275H145.623C145.52 27.6306 145.419 27.593 145.343 27.5229C145.267 27.4528 145.222 27.3557 145.217 27.2526V22.0608H143.714V26.8253C143.71 26.9284 143.664 27.0254 143.588 27.0955C143.512 27.1656 143.412 27.2032 143.309 27.2001H141.693C141.642 27.2032 141.591 27.1958 141.542 27.1783C141.494 27.1609 141.45 27.1337 141.413 27.0986C141.375 27.0635 141.346 27.0211 141.326 26.9741C141.305 26.9271 141.295 26.8765 141.295 26.8253V15.9992C141.295 15.948 141.305 15.8974 141.326 15.8504C141.346 15.8033 141.375 15.761 141.413 15.7259C141.45 15.6907 141.494 15.6636 141.542 15.6461C141.591 15.6287 141.642 15.6213 141.693 15.6243H143.309C143.411 15.6232 143.511 15.6614 143.586 15.7311C143.662 15.8008 143.708 15.8968 143.714 15.9992V20.2539H145.217V15.9992C145.223 15.8964 145.269 15.8 145.344 15.73C145.42 15.6601 145.52 15.6222 145.623 15.6243H147.347C147.45 15.6232 147.549 15.6615 147.624 15.7314C147.699 15.8012 147.744 15.8971 147.749 15.9992V27.2451C147.744 27.3475 147.7 27.444 147.625 27.514C147.55 27.584 147.45 27.6221 147.347 27.62" fill="#77787B"/>
<path d="M85.4818 37.4977H83.6671C83.5644 37.4998 83.4649 37.4617 83.3898 37.3917C83.3148 37.3217 83.27 37.2252 83.2652 37.1228V24.115H78.8883C78.8368 24.1186 78.7851 24.1116 78.7365 24.0944C78.6878 24.0772 78.6432 24.0501 78.6055 24.015C78.5678 23.9798 78.5377 23.9372 78.5172 23.89C78.4967 23.8427 78.4862 23.7917 78.4863 23.7402V22.6606C78.4912 22.5581 78.5359 22.4617 78.611 22.3917C78.6861 22.3216 78.7856 22.2836 78.8883 22.2857H83.2576V15.9992C83.2625 15.8968 83.3072 15.8003 83.3823 15.7303C83.4574 15.6603 83.5569 15.6223 83.6596 15.6243H85.4743C85.6922 15.6243 85.88 15.793 85.88 16.1529V37.2803C85.8431 37.3556 85.7852 37.4187 85.7132 37.4619C85.6412 37.5051 85.5582 37.5267 85.4743 37.5239" fill="#77787B"/>
<path d="M105.187 25.1271C102.309 24.7935 99.7769 23.5752 98.2065 21.8283C96.5647 23.6577 93.9198 24.8272 91.2411 25.1271C91.1541 25.1399 91.0653 25.1245 90.9876 25.0834C90.9099 25.0423 90.8473 24.9775 90.8091 24.8985C90.7452 24.7635 90.4597 24.1975 90.3921 24.0475C90.3689 23.9947 90.3583 23.9373 90.361 23.8798C90.3637 23.8222 90.3797 23.7661 90.4076 23.7157C90.4356 23.6653 90.4749 23.622 90.5223 23.5892C90.5698 23.5563 90.6242 23.5349 90.6814 23.5265C94.3707 22.7767 96.5009 21.6521 96.8427 18.8894H91.583C91.5312 18.8935 91.4791 18.8869 91.43 18.87C91.3809 18.853 91.3359 18.826 91.2977 18.7908C91.2596 18.7556 91.2292 18.7128 91.2085 18.6653C91.1877 18.6177 91.1771 18.5664 91.1773 18.5145V17.5736C91.1831 17.4709 91.2286 17.3744 91.3043 17.3045C91.38 17.2345 91.4799 17.1967 91.583 17.1988H96.8427V15.868C96.8476 15.7656 96.8924 15.6691 96.9674 15.5991C97.0425 15.5291 97.142 15.4911 97.2447 15.4931H99.2246C99.3271 15.492 99.4261 15.5303 99.501 15.6002C99.5758 15.67 99.6208 15.7659 99.6266 15.868V17.1988H104.992C105.043 17.1952 105.095 17.2022 105.143 17.2194C105.192 17.2366 105.237 17.2637 105.274 17.2988C105.312 17.334 105.342 17.3766 105.363 17.4238C105.383 17.4711 105.394 17.5221 105.394 17.5736V18.5145C105.394 18.566 105.383 18.617 105.363 18.6643C105.342 18.7116 105.312 18.7542 105.274 18.7893C105.237 18.8245 105.192 18.8515 105.143 18.8688C105.095 18.886 105.043 18.893 104.992 18.8894H99.5853C100.032 21.8658 102.253 22.8517 105.735 23.5302C105.792 23.5376 105.846 23.5578 105.894 23.5893C105.942 23.6208 105.982 23.6627 106.011 23.7119C106.04 23.761 106.057 23.8161 106.061 23.873C106.066 23.9299 106.057 23.987 106.036 24.04C105.98 24.16 105.687 24.756 105.623 24.8947C105.585 24.9751 105.522 25.0412 105.443 25.0831C105.365 25.125 105.275 25.1404 105.187 25.1271Z" fill="#77787B"/>
<path d="M139.999 17.4312H136.313V15.8605C136.307 15.7578 136.262 15.6613 136.186 15.5914C136.11 15.5215 136.011 15.4836 135.907 15.4857H133.92C133.818 15.4846 133.719 15.5229 133.644 15.5927C133.569 15.6625 133.524 15.7585 133.518 15.8605V17.4312H129.832C129.729 17.4291 129.629 17.467 129.554 17.5369C129.478 17.6068 129.433 17.7033 129.427 17.8061V18.6683C129.433 18.771 129.478 18.8675 129.554 18.9374C129.629 19.0074 129.729 19.0452 129.832 19.0431H131.519C131.007 19.4555 130.594 19.9776 130.311 20.5706C130.028 21.1637 129.883 21.8126 129.885 22.4694C129.885 25.0747 132.09 27.054 134.912 27.054C137.733 27.054 139.942 25.0747 139.942 22.4694C139.945 21.813 139.799 21.1644 139.517 20.5715C139.235 19.9785 138.823 19.4563 138.312 19.0431H139.999C140.05 19.0467 140.102 19.0397 140.151 19.0225C140.199 19.0053 140.244 18.9782 140.282 18.9431C140.319 18.9079 140.349 18.8653 140.37 18.8181C140.39 18.7708 140.401 18.7198 140.401 18.6683V17.8061C140.401 17.7546 140.39 17.7036 140.37 17.6563C140.349 17.609 140.319 17.5665 140.282 17.5313C140.244 17.4961 140.199 17.4691 140.151 17.4519C140.102 17.4346 140.05 17.4276 139.999 17.4312ZM134.912 25.4646C133.477 25.4646 132.222 24.1263 132.222 22.4844C132.222 20.8425 133.469 19.5042 134.912 19.5042C136.355 19.5042 137.609 20.8425 137.609 22.4844C137.609 24.1263 136.37 25.4646 134.912 25.4646Z" fill="#77787B"/>
<path d="M135.753 33.108C135.753 30.2891 138.383 28.396 141.479 28.396C144.575 28.396 147.205 30.2703 147.205 33.108C147.205 35.9458 144.526 37.8238 141.479 37.8238C138.432 37.8238 135.753 35.927 135.753 33.108ZM138.334 33.108C138.334 34.7312 139.462 36.2869 141.479 36.2869C141.898 36.2969 142.315 36.2212 142.703 36.0644C143.092 35.9076 143.444 35.6731 143.738 35.3753C144.033 35.0774 144.263 34.7226 144.414 34.3327C144.566 33.9427 144.636 33.526 144.62 33.108C144.634 32.6871 144.564 32.2676 144.413 31.8744C144.261 31.4813 144.032 31.1226 143.739 30.8197C143.445 30.5167 143.094 30.2758 142.706 30.1113C142.317 29.9468 141.899 29.862 141.477 29.862C141.055 29.862 140.637 29.9468 140.249 30.1113C139.86 30.2758 139.509 30.5167 139.215 30.8197C138.922 31.1226 138.693 31.4813 138.542 31.8744C138.39 32.2676 138.32 32.6871 138.334 33.108Z" fill="#77787B"/>
<path d="M14.2952 30.1241C13.8256 32.7182 15.1518 33.5504 17.4623 33.5504C19.1041 33.5504 20.9412 32.9319 21.3094 31.3012C21.7527 29.3557 18.8524 28.9846 16.0497 28.0849C13.247 27.1852 10.4669 25.7682 11.3836 21.7122C12.4806 16.9027 17.4924 15.0059 21.4071 15.0059C25.5585 15.0059 29.2591 17.1351 28.1696 22.1283H22.722C23.2668 20.119 21.6288 19.4705 19.9644 19.4705C18.796 19.4705 17.2331 19.8978 16.9063 21.3448C16.5306 23.043 19.461 23.3503 22.2975 24.25C25.134 25.1497 27.8052 26.6229 26.9035 30.6227C25.6337 36.2119 20.7233 38.0038 16.1324 38.0038C11.3385 38.0038 7.60411 35.7808 8.85893 30.1316L14.2952 30.1241Z" fill="#005DA1"/>
<path d="M51.9173 15.4819H57.3536L52.3456 37.5352H46.9055L51.9173 15.4819Z" fill="#005DA1"/>
<path d="M32.1033 15.4819H41.8714C45.4855 15.4219 49.2087 16.4078 48.1642 21.0111C47.9126 21.986 47.4442 22.8919 46.7939 23.6615C46.1435 24.4312 45.3278 25.0449 44.4073 25.457C46.4736 26.1355 47.3865 28.1786 46.8155 30.6789C45.6245 35.927 41.6046 37.5352 37.1338 37.5352H27.0916L32.1033 15.4819ZM35.5634 24.1638H39.775C40.398 24.1745 41.0059 23.9716 41.4969 23.5888C41.9879 23.206 42.3323 22.6666 42.4725 22.0608C42.8482 20.4526 41.8751 19.9278 40.7405 19.9278H36.529L35.5634 24.1638ZM33.5723 32.9318H37.9378C39.6623 32.9318 41.0073 32.2833 41.4205 30.4615C41.8638 28.5159 40.7255 27.8674 39.0875 27.8674H34.7294L33.5723 32.9318Z" fill="#005DA1"/>
<path d="M64.9462 6.62386C61.9407 -1.34201 44.7414 -2.25294 26.5428 4.58833C13.5588 9.46157 3.57285 16.9589 0 23.7701C4.94038 18.6195 12.9201 13.5626 22.5416 9.9414C40.744 3.09637 57.9395 4.0073 60.9488 11.9732C61.8129 14.2598 61.4109 16.8726 59.972 19.6091C64.3752 15.0246 66.3588 10.3725 64.9425 6.62386" fill="#EE303B"/>
<path d="M115.89 37.4977C115.088 37.5158 114.312 37.2159 113.731 36.6636C113.15 36.1113 112.812 35.3517 112.791 34.5513V30.3753C112.791 30.3238 112.801 30.2728 112.822 30.2255C112.842 30.1782 112.872 30.1357 112.91 30.1005C112.948 30.0653 112.992 30.0383 113.041 30.0211C113.09 30.0039 113.142 29.9968 113.193 30.0004H115.004C115.107 29.9983 115.207 30.0362 115.283 30.1061C115.358 30.1761 115.404 30.2725 115.41 30.3753V34.3301C115.422 34.7239 115.59 35.0968 115.876 35.3683C116.162 35.6397 116.544 35.7879 116.939 35.7808H126.301C126.404 35.7787 126.504 35.8166 126.58 35.8865C126.655 35.9565 126.701 36.053 126.707 36.1557V37.1229C126.701 37.2256 126.655 37.3221 126.58 37.392C126.504 37.4619 126.404 37.4998 126.301 37.4977H115.89Z" fill="#77787B"/>
<path d="M109.781 28.7146C109.73 28.7182 109.678 28.7112 109.63 28.6939C109.581 28.6767 109.536 28.6497 109.499 28.6145C109.461 28.5793 109.431 28.5368 109.41 28.4895C109.39 28.4422 109.379 28.3912 109.379 28.3397V27.4063C109.379 27.3548 109.39 27.3038 109.41 27.2565C109.431 27.2092 109.461 27.1667 109.499 27.1315C109.536 27.0963 109.581 27.0693 109.63 27.0521C109.678 27.0349 109.73 27.0278 109.781 27.0314H128.923C128.975 27.0278 129.026 27.0349 129.075 27.0521C129.124 27.0693 129.168 27.0963 129.206 27.1315C129.244 27.1667 129.274 27.2092 129.294 27.2565C129.315 27.3038 129.325 27.3548 129.325 27.4063V28.336C129.325 28.3875 129.315 28.4385 129.294 28.4858C129.274 28.533 129.244 28.5756 129.206 28.6108C129.168 28.6459 129.124 28.673 129.075 28.6902C129.026 28.7074 128.975 28.7144 128.923 28.7108L109.781 28.7146Z" fill="#77787B"/>
<path d="M113.392 20.6289C113.392 17.8249 116.003 15.542 119.441 15.542C122.878 15.542 125.474 17.8212 125.474 20.6289C125.474 23.4366 122.845 25.7158 119.43 25.7158C116.014 25.7158 113.381 23.4329 113.381 20.6289M116.011 20.6289C116.018 21.2936 116.222 21.9412 116.597 22.4906C116.972 23.04 117.502 23.4666 118.119 23.7168C118.736 23.9671 119.413 24.0299 120.066 23.8973C120.719 23.7648 121.318 23.4428 121.788 22.9717C122.258 22.5007 122.578 21.9016 122.708 21.2496C122.838 20.5977 122.772 19.922 122.519 19.3073C122.265 18.6926 121.835 18.1664 121.283 17.7946C120.731 17.4228 120.081 17.2221 119.415 17.2176C118.961 17.1967 118.507 17.2707 118.084 17.4349C117.66 17.5991 117.276 17.8499 116.956 18.1711C116.635 18.4924 116.385 18.877 116.223 19.3003C116.06 19.7236 115.988 20.1761 116.011 20.6289Z" fill="#77787B"/>
<path d="M79.4893 31.7023C77.5456 30.6419 75.9068 29.1022 74.7292 27.2301C73.5707 29.1117 71.937 30.6565 69.9917 31.7097C69.9075 31.7526 69.8114 31.7659 69.7187 31.7475C69.626 31.7292 69.5422 31.6802 69.4808 31.6085C69.3493 31.4473 68.7895 30.6564 68.6881 30.5364C68.6566 30.4951 68.634 30.4477 68.6218 30.3973C68.6096 30.3468 68.608 30.2943 68.6172 30.2432C68.6264 30.1921 68.6461 30.1435 68.6751 30.1004C68.7041 30.0573 68.7418 30.0207 68.7857 29.9929C70.7919 28.7071 72.0768 27.6087 72.7493 26.1055C73.3053 24.8722 73.4181 23.3953 73.4181 21.0823V18.9606H69.5221C69.419 18.9627 69.3191 18.9248 69.2434 18.8549C69.1677 18.785 69.1222 18.6885 69.1164 18.5857V17.5811C69.1222 17.4784 69.1677 17.3819 69.2434 17.3119C69.3191 17.242 69.419 17.2041 69.5221 17.2062H80.0152C80.0667 17.2026 80.1184 17.2097 80.1671 17.2269C80.2158 17.2441 80.2603 17.2711 80.2981 17.3063C80.3358 17.3415 80.3658 17.384 80.3863 17.4313C80.4069 17.4786 80.4174 17.5296 80.4172 17.5811V18.5857C80.4174 18.6373 80.4069 18.6883 80.3863 18.7355C80.3658 18.7828 80.3358 18.8254 80.2981 18.8605C80.2603 18.8957 80.2158 18.9228 80.1671 18.94C80.1184 18.9572 80.0667 18.9642 80.0152 18.9606H76.0329V21.0823C76.0329 23.3878 76.1606 24.831 76.6941 26.0456C77.3816 27.59 78.6928 28.6696 80.6877 29.9779C80.7363 30.0035 80.7786 30.0395 80.8118 30.0832C80.8449 30.1269 80.868 30.1774 80.8794 30.231C80.8909 30.2846 80.8904 30.3401 80.8781 30.3935C80.8657 30.4469 80.8418 30.497 80.8079 30.5402C80.7103 30.6601 80.1017 31.4998 80.0002 31.6273C79.9346 31.6944 79.8486 31.7381 79.7556 31.7516C79.6626 31.7652 79.5677 31.7478 79.4855 31.7023" fill="#77787B"/>
</g>
<defs>
<clipPath id="clip0_376_1893">
<rect width="147.753" height="38" fill="white"/>
</clipPath>
</defs>
</svg>
