<svg width="122" height="30" viewBox="0 0 122 30" fill="none" xmlns="http://www.w3.org/2000/svg">
<rect width="30" height="30" rx="6.83824" fill="#140064"/>
<path d="M20.1594 9.04839L15.013 12.9803L9.86667 9.04839L6.39697 6.39703V10.6364V23.1617H9.86667V13.326L15.013 17.3169L20.1594 13.326V23.1617H23.6273V10.6364V6.39703L20.1594 9.04839Z" fill="#BCF100"/>
<path d="M54.6616 4.63232H49.581L41.5568 13.9345V4.63232H37.5V24.9264H41.5568V15.6005L49.8459 24.9264H54.9265L45.9082 14.7794L54.6616 4.63232Z" fill="#140064"/>
<path d="M121.544 24.9264L115.49 17.9068L121.364 10.8872H117.016L111.896 16.9612V4.63232H107.868V24.9264H111.896V18.8376L117.113 24.9264H121.544Z" fill="#140064"/>
<path d="M64.5631 10.3913C62.8781 10.3913 61.4402 11.1227 60.258 12.1264V4.63232H56.25V17.9831C56.25 22.004 58.8965 25.3676 63.8603 25.3676C68.3271 25.3676 71.4706 22.2616 71.4706 17.9091C71.4706 13.7875 68.7652 10.3913 64.5631 10.3913ZM63.8603 21.7198C62.869 21.7164 61.9178 21.3255 61.2073 20.6294C60.4969 19.9334 60.0827 18.9867 60.0522 17.989C60.0522 17.9535 60.0522 17.918 60.0522 17.8824C60.0522 17.1211 60.2764 16.3769 60.6965 15.7439C61.1165 15.1109 61.7136 14.6176 62.4121 14.3262C63.1106 14.0349 63.8792 13.9587 64.6208 14.1072C65.3623 14.2557 66.0435 14.6223 66.5781 15.1606C67.1127 15.699 67.4768 16.3848 67.6243 17.1315C67.7718 17.8782 67.6961 18.6521 67.4068 19.3554C67.1175 20.0588 66.6275 20.66 65.9988 21.0829C65.3702 21.5059 64.6311 21.7316 63.875 21.7316L63.8603 21.7198Z" fill="#140064"/>
<path d="M100.056 10.3681C98.3264 10.3472 96.6533 10.9846 95.3773 12.1508V10.8108H91.3232V24.9264H95.3773V17.0144C95.3773 16.2225 95.6924 15.463 96.2534 14.9031C96.8144 14.3431 97.5753 14.0285 98.3687 14.0285C99.162 14.0285 99.9229 14.3431 100.484 14.9031C101.045 15.463 101.36 16.2225 101.36 17.0144V24.9264H105.441V15.8854C105.441 15.829 105.441 15.7755 105.441 15.722C105.43 14.3019 104.858 12.9433 103.85 11.941C102.842 10.9387 101.479 10.3735 100.056 10.3681Z" fill="#140064"/>
<path d="M81.2854 10.3676C76.6884 10.3676 73.4561 13.4773 73.4561 17.838C73.4561 21.9615 76.2394 25.3676 80.5642 25.3676C81.506 25.3512 82.4321 25.1253 83.2739 24.7066C84.1157 24.2878 84.8518 23.6871 85.4276 22.9486V24.8933H89.1178V17.8469H89.0849L89.1178 17.7668C89.1178 13.7441 86.4003 10.3676 81.2854 10.3676ZM81.3722 21.6769C80.6027 21.6769 79.8505 21.4509 79.2106 21.0274C78.5708 20.604 78.0721 20.0021 77.7776 19.2979C77.4832 18.5937 77.4061 17.8189 77.5562 17.0713C77.7064 16.3238 78.0769 15.6371 78.6211 15.0981C79.1652 14.5592 79.8585 14.1921 80.6132 14.0434C81.3679 13.8947 82.1502 13.9711 82.8612 14.2627C83.5721 14.5544 84.1798 15.0484 84.6073 15.6821C85.0348 16.3159 85.263 17.0609 85.263 17.8231C85.2638 18.3292 85.1639 18.8305 84.9691 19.2984C84.7743 19.7662 84.4884 20.1915 84.1276 20.5499C83.7669 20.9083 83.3384 21.1928 82.8667 21.3872C82.3949 21.5816 81.8892 21.6821 81.3782 21.6828L81.3722 21.6769Z" fill="#140064"/>
</svg>
