<svg width="164" height="36" viewBox="0 0 164 36" fill="none" xmlns="http://www.w3.org/2000/svg">
<path d="M45.0302 4.68844C44.2342 4.46576 43.5377 3.97871 43.0554 3.30746C42.596 4.06366 41.8844 4.63341 41.046 4.91631L40.4937 4.22581C42.3165 3.56985 42.5651 2.56173 42.5651 2.2372H40.9977V1.47766H45.0509V2.2372H43.4904C43.6289 2.68079 43.8862 3.07806 44.2342 3.38597C44.5823 3.69389 45.008 3.90074 45.4652 3.98414L45.0302 4.68844ZM41.8677 8.19614V5.34441H47.0257V8.19614H41.8677ZM41.8677 0.814786V0.055241H44.2016V0.814786H41.8677ZM46.1419 6.13157H42.6894V7.41588H46.1419V6.13157ZM46.9912 2.84483V4.91631H46.1419V0.0483398H46.9912V2.01624H48.0614V2.83793L46.9912 2.84483Z" fill="#0055A2"/>
<path d="M51.4587 8.26517H50.3608V7.08443H51.4587V8.26517ZM50.4506 3.72865V0.138092H51.3759V3.72865L51.1135 6.16608H50.713L50.4506 3.72865Z" fill="#0055A2"/>
<path d="M58.1909 4.10152V3.3696H61.4569V2.5203H62.3339V3.3696H65.5999V4.10152H58.1909ZM65.0958 2.36839L64.647 3.05888C63.6025 2.96916 62.6237 2.51159 61.8851 1.76766C61.1542 2.52682 60.1729 2.99536 59.1231 3.08649L58.6674 2.43053C59.3579 2.34077 61.0219 1.88504 61.4293 1.1255H59.0955V0.365967H64.7644V1.06336H62.4167C62.7758 1.83671 64.3018 2.30624 65.1096 2.36839H65.0958ZM58.7571 6.1868V5.49631H64.9715V6.1868H58.7571ZM61.8989 8.4378C60.4626 8.4378 59.1369 8.18233 59.1369 7.42279C59.1369 6.66325 60.5179 6.41467 61.8989 6.41467C63.2798 6.41467 64.6608 6.66325 64.6608 7.42279C64.6608 8.18233 63.1832 8.4378 61.9127 8.4378H61.8989ZM60.1105 5.15797V4.46748H63.6113V5.15797H60.1105ZM61.8989 7.07063C61.1117 7.07063 60.1588 7.07064 60.1588 7.42969C60.1588 7.78875 61.1117 7.76804 61.8989 7.76804C62.686 7.76804 63.6251 7.76803 63.6251 7.42969C63.6251 7.09135 62.6446 7.07063 61.9127 7.07063H61.8989Z" fill="#0055A2"/>
<path d="M66.5459 5.04749V4.24652H73.9618V5.04749H66.5459ZM70.2469 3.55603C68.4309 3.55603 67.4228 2.82411 67.4228 1.80218C67.4228 0.780256 68.4309 0 70.2469 0C72.0629 0 73.071 0.773351 73.071 1.80218C73.071 2.83101 72.0974 3.55603 70.2469 3.55603ZM67.485 8.10636V5.7656H68.3204V7.3192H73.2091V8.10636H67.485ZM70.2469 0.731919C69.0869 0.731919 68.3204 1.17383 68.3204 1.78837C68.3204 2.40291 69.1283 2.81029 70.24 2.81029C71.3517 2.81029 72.2148 2.44434 72.2148 1.80218C72.2148 1.16003 71.4139 0.731919 70.2538 0.731919H70.2469Z" fill="#0055A2"/>
<path d="M77.863 5.04749V4.24652H85.272V5.04749H77.863ZM81.5572 3.55603C79.7481 3.55603 78.7331 2.82411 78.7331 1.80218C78.7331 0.780256 79.7412 0 81.5572 0C83.3732 0 84.3813 0.773351 84.3813 1.80218C84.3813 2.83101 83.4008 3.55603 81.5572 3.55603ZM78.7952 8.10636V5.7656H79.6376V7.3192H84.5263V8.10636H78.7952ZM81.5572 0.731919C80.3971 0.731919 79.6307 1.17383 79.6307 1.78837C79.6307 2.40291 80.4455 2.81029 81.5503 2.81029C82.655 2.81029 83.4974 2.42362 83.4974 1.80218C83.4974 1.18074 82.731 0.731919 81.5641 0.731919H81.5572Z" fill="#0055A2"/>
<path d="M86.0593 2.06456V1.37407H89.8294V2.06456H86.0593ZM87.9306 5.0682C86.9086 5.0682 86.2389 4.52272 86.2389 3.74246C86.2389 2.96221 86.9293 2.45815 87.9375 2.45815C88.9456 2.45815 89.6361 2.97601 89.6361 3.75626C89.6361 4.53652 88.9801 5.0682 87.9306 5.0682ZM86.957 0.856202V0.16571H88.9111V0.856202H86.957ZM89.933 8.45161C88.0756 8.45161 87.0536 7.76112 87.0536 6.898C87.0536 6.03489 88.0963 5.40654 89.9468 5.40654C91.7973 5.40654 92.8123 6.03489 92.8123 6.92563C92.8123 7.81636 91.7973 8.45161 89.933 8.45161ZM87.9375 3.13483C87.3575 3.13483 87.0675 3.36269 87.0675 3.74246C87.0675 4.12223 87.3575 4.3708 87.9375 4.3708C88.5175 4.3708 88.8144 4.12914 88.8144 3.74246C88.8144 3.35579 88.5382 3.13483 87.9375 3.13483ZM89.933 6.10394C88.773 6.10394 87.972 6.37323 87.972 6.898C87.972 7.42278 88.7661 7.69897 89.933 7.69897C91.0999 7.69897 91.8595 7.40897 91.8595 6.90491C91.8595 6.40086 91.093 6.11775 89.933 6.11775V6.10394ZM92.0045 5.19249V2.94839H91.1344V5.01986H90.3473V0.186424H91.1344V2.10599H92.0045V0.0345154H92.7985V5.2063L92.0045 5.19249Z" fill="#0055A2"/>
<path d="M8.28918 3.41102C7.83678 3.63551 7.43351 3.94767 7.10279 4.32936C6.77207 4.71105 6.52051 5.15465 6.36272 5.6344L0.203534 24.1534C0.039813 24.6327 -0.0262137 25.1399 0.00936487 25.6451C0.0449435 26.1503 0.181398 26.6433 0.410673 27.0949C0.86782 28.0058 1.66729 28.6985 2.63406 29.0214L22.8378 35.802C23.318 35.9621 23.8249 36.0262 24.3298 35.9903C24.8347 35.9545 25.3276 35.8196 25.7803 35.5932C26.233 35.3669 26.6366 35.0536 26.9682 34.6711C27.2998 34.2887 27.5528 33.8447 27.7127 33.3645L33.8788 14.8732C34.1982 13.9025 34.1203 12.8449 33.6623 11.9315C33.2043 11.018 32.4033 10.323 31.4345 9.99831L11.2307 3.21768C10.7506 3.05694 10.2434 2.99309 9.73847 3.02983C9.23354 3.06658 8.74092 3.20318 8.28918 3.43173" fill="white"/>
<path d="M18.1632 21.1912C17.0588 22.4415 15.6715 23.4098 14.117 24.0153L13.1986 24.3743V15.7915L14.1031 16.1437C15.6583 16.7489 17.0491 17.7116 18.1632 18.954C18.9771 17.6535 19.4519 16.1698 19.5442 14.6384C19.6587 12.6818 19.153 10.739 18.0992 9.08642C17.0455 7.43386 15.4973 6.15581 13.675 5.43416L10.7612 4.46057C10.4488 4.35818 10.1193 4.3184 9.79155 4.34352C9.4638 4.36864 9.14421 4.45818 8.8511 4.60698C8.55798 4.75578 8.2971 4.96093 8.08338 5.21069C7.86967 5.46046 7.70731 5.74992 7.60562 6.06251L1.42572 24.5884C1.22091 25.2257 1.2766 25.9182 1.58062 26.5146C1.88465 27.111 2.41231 27.5629 3.04838 27.7716L17.0654 32.4531C18.4645 30.9599 19.3313 29.0463 19.5311 27.0098C19.7308 24.9733 19.2524 22.9278 18.1701 21.1912M10.0707 24.8991H8.68969V15.2806H10.0707V24.8991Z" fill="#0099DA"/>
<path d="M17.3554 20.0726C16.5706 19.1444 15.611 18.3796 14.5312 17.8216V22.3443C15.6135 21.7811 16.5733 21.009 17.3554 20.0726Z" fill="#F15C21"/>
<path d="M30.9857 11.2205L18.1218 6.91873C19.7403 8.6838 20.7129 10.9452 20.881 13.3341C21.049 15.723 20.4026 18.0983 19.0471 20.0726C20.3641 21.9857 21.0172 24.2779 20.9062 26.5978C20.7952 28.9177 19.9262 31.1372 18.4325 32.9157L23.266 34.5246C23.5783 34.6289 23.9082 34.6701 24.2365 34.6459C24.5648 34.6216 24.8851 34.5324 25.1787 34.3834C25.4723 34.2343 25.7333 34.0284 25.9467 33.7777C26.16 33.5269 26.3214 33.2363 26.4215 32.9226L32.6014 14.4037C32.8062 13.7663 32.7506 13.0739 32.4465 12.4775C32.1425 11.881 31.6148 11.4292 30.9788 11.2205M27.5677 24.8715H25.8346L22.2648 20.0381L25.8899 15.2046H27.6437L24.0048 20.0381L27.5677 24.8715Z" fill="#0055A2"/>
<path d="M45.258 12.2355H41.8677V32.4876H45.258V12.2355Z" fill="#0055A2"/>
<path d="M49.9534 12.2286V32.4738H56.1264C61.3672 32.4738 63.8461 30.6164 63.853 26.9154C63.8915 25.8472 63.5671 24.7975 62.9326 23.9373C62.2981 23.0771 61.391 22.4572 60.3591 22.1786L60.1588 22.1164L60.3522 22.0405C61.2756 21.7173 62.0681 21.1012 62.6091 20.286C63.1501 19.4708 63.4099 18.5011 63.3489 17.5247C63.3489 14.0722 60.9805 12.2424 56.2023 12.2286H49.9534ZM55.5395 23.525C57.9562 23.525 60.2831 23.9117 60.29 26.6599C60.3247 27.0977 60.2433 27.5369 60.0542 27.9333C59.8651 28.3297 59.575 28.6692 59.2129 28.9178C58.1638 29.451 56.9897 29.6897 55.8156 29.6083H53.3437V23.5458H55.5395M56.6511 15.1425C57.6247 15.1425 59.9517 15.4739 59.9586 17.8285C60.0143 18.3239 59.9103 18.8241 59.6619 19.2563C59.4135 19.6885 59.0337 20.0301 58.5776 20.2314C57.5062 20.5872 56.376 20.7325 55.2494 20.6595H53.3368V15.1356H56.6442" fill="#0055A2"/>
<path d="M82.8624 12.2286C81.7852 13.3472 73.7479 21.8333 73.7479 21.8333C73.7479 21.8333 82.4688 31.2931 83.5736 32.4738H78.8437L70.9307 23.3524V32.4807H67.5334V12.2355H70.9307V20.3971L78.4846 12.201L82.8624 12.2286Z" fill="#0055A2"/>
<path d="M121.116 23.8496V25.921H112.878V23.8496H110.192V32.4324H123.857V23.8496H121.116ZM121.116 30.3402H112.878V27.882H121.116V30.3402ZM115.764 21.3016C116.736 20.5739 117.406 19.515 117.649 18.3256H121.102V22.7241H123.808V12.2286H121.102V16.3715H117.649C117.471 15.1431 116.816 14.0344 115.826 13.285C114.721 12.4552 113.364 12.0286 111.982 12.0764C110.601 12.1241 109.277 12.6432 108.231 13.5474C107.698 14.0057 107.271 14.5737 106.977 15.2124C106.684 15.8512 106.533 16.5457 106.533 17.2485C106.533 17.9513 106.684 18.6458 106.977 19.2845C107.271 19.9233 107.698 20.4912 108.231 20.9495C109.258 21.8383 110.555 22.3545 111.912 22.4147C113.269 22.4748 114.607 22.0754 115.709 21.2809L115.764 21.3016ZM110.144 19.5616C109.596 18.9337 109.305 18.1226 109.329 17.2899C109.301 16.4643 109.599 15.6609 110.157 15.0527C110.416 14.7606 110.736 14.5288 111.093 14.3737C111.451 14.2186 111.839 14.144 112.229 14.1551C112.619 14.1367 113.008 14.2074 113.367 14.3617C113.726 14.516 114.045 14.7499 114.3 15.0458C114.823 15.6744 115.096 16.4731 115.067 17.2899C115.092 18.1202 114.812 18.9311 114.28 19.5685C114.024 19.8659 113.706 20.1026 113.348 20.2615C112.989 20.4203 112.6 20.4973 112.208 20.4869C111.817 20.5008 111.428 20.4253 111.07 20.2662C110.712 20.1071 110.395 19.8685 110.144 19.5685V19.5616ZM101.298 12.2355V32.4807H103.978V12.2424L101.298 12.2355ZM87.6682 14.7213H94.7526V16.2542C94.7062 18.5853 93.8859 20.8348 92.4209 22.6486C90.9558 24.4624 88.9292 25.7375 86.66 26.2732H86.5496L87.9305 27.9787H87.9789C93.1852 26.4527 97.4938 21.6124 97.4938 16.2818V12.7326H87.6682V14.7213Z" fill="#0055A2"/>
<path d="M131.887 25.8727H129.146V32.4117H142.804V30.4576H131.887V25.8727Z" fill="#0055A2"/>
<path d="M140.145 12.9605C138.787 12.1125 137.217 11.663 135.616 11.663C134.014 11.663 132.445 12.1125 131.086 12.9605C130.482 13.3478 129.988 13.8856 129.654 14.5211C129.32 15.1566 129.157 15.868 129.18 16.5856C129.163 17.2974 129.329 18.0017 129.663 18.6307C129.997 19.2596 130.487 19.7919 131.086 20.1761C132.448 21.0157 134.016 21.4602 135.616 21.4602C137.216 21.4602 138.784 21.0157 140.145 20.1761C140.748 19.7949 141.24 19.2632 141.574 18.6336C141.909 18.0039 142.073 17.2981 142.051 16.5856C142.075 15.868 141.912 15.1566 141.578 14.5211C141.244 13.8856 140.75 13.3478 140.145 12.9605ZM138.254 18.7123C137.485 19.2513 136.569 19.5404 135.63 19.5404C134.691 19.5404 133.775 19.2513 133.006 18.7123C132.681 18.4622 132.42 18.1396 132.242 17.7703C132.065 17.401 131.976 16.9953 131.984 16.5856C131.98 16.1706 132.07 15.7602 132.247 15.3849C132.424 15.0095 132.684 14.6789 133.006 14.4174C133.755 13.8357 134.677 13.52 135.626 13.52C136.575 13.52 137.497 13.8357 138.247 14.4174C138.571 14.6768 138.832 15.0071 139.009 15.3829C139.186 15.7587 139.275 16.1702 139.269 16.5856C139.279 16.995 139.193 17.4011 139.016 17.7707C138.84 18.1404 138.578 18.463 138.254 18.7123Z" fill="#0055A2"/>
<path d="M144.585 22.4755H126.563V24.5953H144.585V22.4755Z" fill="#0055A2"/>
<path d="M160.695 25.9211C159.355 25.2136 157.863 24.8438 156.348 24.8438C154.833 24.8438 153.341 25.2136 152.001 25.9211C151.455 26.1981 150.997 26.6209 150.677 27.1426C150.357 27.6642 150.187 28.2643 150.187 28.8764C150.187 29.4884 150.357 30.0885 150.677 30.6102C150.997 31.1318 151.455 31.5546 152.001 31.8317C153.346 32.5212 154.836 32.8808 156.348 32.8808C157.859 32.8808 159.349 32.5212 160.695 31.8317C161.236 31.5511 161.69 31.1271 162.007 30.6059C162.324 30.0847 162.492 29.4864 162.492 28.8764C162.492 28.2663 162.324 27.668 162.007 27.1468C161.69 26.6257 161.236 26.2016 160.695 25.9211ZM158.899 30.4438C158.113 30.8517 157.24 31.0647 156.355 31.0647C155.469 31.0647 154.596 30.8517 153.81 30.4438C153.52 30.2978 153.275 30.0766 153.1 29.8032C152.925 29.5299 152.827 29.2145 152.816 28.8902C152.827 28.5587 152.925 28.2359 153.1 27.9537C153.274 27.6715 153.519 27.4398 153.81 27.2813C154.589 26.8509 155.465 26.6252 156.355 26.6252C157.245 26.6252 158.12 26.8509 158.899 27.2813C159.192 27.4387 159.437 27.6702 159.612 27.9526C159.786 28.235 159.884 28.5583 159.894 28.8902C159.888 29.2184 159.792 29.5387 159.616 29.8163C159.441 30.0939 159.193 30.3181 158.899 30.4645V30.4438Z" fill="#0055A2"/>
<path d="M153.216 12.5117H147.092V14.3277H153.216V12.5117Z" fill="#0055A2"/>
<path d="M160.467 12.2562V16.9239H158.941V12.2562H156.351V23.6908H158.941V18.7468H160.467V24.4779H163.063V12.2562H160.467Z" fill="#0055A2"/>
<path d="M155.419 14.9837H146.015V16.7928H147.989C147.424 17.1299 146.954 17.6053 146.623 18.1742C146.292 18.7432 146.111 19.3869 146.098 20.045C146.098 22.2891 148.169 24.0982 150.731 24.0982C153.292 24.0982 155.378 22.2891 155.378 20.045C155.363 19.3864 155.181 18.7425 154.848 18.1736C154.516 17.6047 154.045 17.1296 153.479 16.7928H155.419V14.9837ZM150.731 22.4686C150.241 22.5146 149.749 22.4113 149.319 22.1723C148.889 21.9333 148.541 21.5698 148.322 21.1296C148.102 20.6894 148.021 20.193 148.089 19.7058C148.157 19.2185 148.37 18.7632 148.702 18.3997C149.033 18.0362 149.467 17.7814 149.946 17.6689C150.425 17.5565 150.926 17.5916 151.385 17.7696C151.843 17.9476 152.237 18.2602 152.515 18.6663C152.793 19.0724 152.941 19.553 152.94 20.045C152.967 20.6588 152.749 21.2582 152.335 21.7122C151.921 22.1663 151.344 22.4382 150.731 22.4686Z" fill="#0055A2"/>
</svg>
