<svg width="173" height="38" viewBox="0 0 173 38" fill="none" xmlns="http://www.w3.org/2000/svg">
<g clip-path="url(#clip0_376_1972)">
<path d="M34.4339 37.9999H3.56891C1.59764 37.9999 0.0012207 36.4021 0.0012207 34.4322V3.5672C0.0012207 1.59593 1.59764 -0.000488281 3.56891 -0.000488281H34.4339C36.4038 -0.000488281 38.0016 1.59593 38.0016 3.5672V34.4322C38.0016 36.4021 36.4038 37.9999 34.4339 37.9999Z" fill="#FFE300"/>
<path d="M20.2196 24.2256H18.2511V13.7745H20.2196V24.2256ZM25.3652 19.0001C27.0627 17.8812 28.1831 15.9598 28.1831 13.7747C28.1831 10.321 25.3823 7.52151 21.9286 7.52151H11.4465C11.2455 7.52151 11.0845 7.68258 11.0845 7.88356V30.1169C11.0845 30.3179 11.2455 30.4804 11.4465 30.4804H21.9286C25.3823 30.4804 28.1831 27.6809 28.1831 24.2259C28.1831 22.0408 27.0628 20.1176 25.3652 19.0001Z" fill="#1C1C1C"/>
<path d="M57.806 14.6381L59.5407 15.9253L54.9952 21.6011L60.2505 27.8799L58.5158 29.2468L52.3938 21.7066L57.806 14.6381ZM51.4218 28.8791H49.2139V9.22641L51.4218 8.7261V28.8791Z" fill="#1C1C1C"/>
<path d="M69.6553 25.7264V22.4152H67.1852C64.6894 22.4152 63.559 23.2562 63.559 25.0422C63.559 26.4875 64.3473 27.3028 65.767 27.3028C67.0541 27.3028 68.7345 26.6201 69.6553 25.7264ZM66.8958 20.8659H69.6554V19.7355C69.6554 17.5547 68.6833 16.6867 66.8431 16.6867C65.5559 16.6867 64.1106 17.0815 62.9818 17.6075L62.3246 16.0567C63.7172 15.2684 65.3992 14.7952 66.8959 14.7952C70.1814 14.7952 71.7835 16.3731 71.7835 19.841V28.8793H70.1543L69.892 27.3556C68.5251 28.4588 66.7648 29.0889 65.3721 29.0889C62.929 29.0889 61.458 27.6179 61.458 25.1477C61.458 22.3368 63.3496 20.8659 66.8958 20.8659Z" fill="#1C1C1C"/>
<path d="M84.3153 14.6381L86.0486 15.9253L81.503 21.6011L86.7583 27.8799L85.0251 29.2468L78.9031 21.7066L84.3153 14.6381ZM77.9296 28.8791H75.7231V9.22641L77.9296 8.7261V28.8791Z" fill="#1C1C1C"/>
<path d="M96.1628 25.7264V22.4152H93.694C91.1982 22.4152 90.0678 23.2562 90.0678 25.0422C90.0678 26.4875 90.8561 27.3028 92.2743 27.3028C93.5615 27.3028 95.2434 26.6201 96.1628 25.7264ZM93.4047 20.8659H96.1628V19.7355C96.1628 17.5547 95.1921 16.6867 93.3519 16.6867C92.0648 16.6867 90.6195 17.0815 89.4906 17.6075L88.8321 16.0567C90.2261 15.2684 91.9066 14.7952 93.4046 14.7952C96.6887 14.7952 98.2922 16.3731 98.2922 19.841V28.8793H96.663L96.3993 27.3556C95.0338 28.4588 93.2735 29.0889 91.8809 29.0889C89.4364 29.0889 87.9653 27.6179 87.9653 25.1477C87.9653 22.3368 89.8583 20.8659 93.4047 20.8659Z" fill="#1C1C1C"/>
<path d="M103.726 21.9955C103.726 25.4905 105.144 27.3292 107.588 27.3292C110.031 27.3292 111.45 25.4905 111.45 21.9955C111.45 18.5019 110.031 16.609 107.588 16.609C105.144 16.609 103.726 18.5019 103.726 21.9955ZM113.737 21.9955C113.737 26.5938 111.45 29.1423 107.588 29.1423C103.752 29.1423 101.44 26.5938 101.44 21.9955C101.44 17.3715 103.779 14.7973 107.588 14.7973C111.425 14.7973 113.737 17.3715 113.737 21.9955Z" fill="#1C1C1C"/>
<path d="M120.545 17.766V26.5407C121.096 26.6205 121.464 26.6205 121.805 26.6205C124.013 26.6205 125.589 25.2279 125.589 21.6801C125.589 19.0004 124.932 17.4496 122.436 17.4496C121.648 17.4496 120.964 17.6335 120.545 17.766ZM117.024 28.4592V9.27815L120.545 8.64813V15.5056C121.386 14.9796 122.489 14.6119 123.698 14.6119C127.428 14.6119 129.162 17.1618 129.162 21.6019C129.162 26.4097 126.536 29.2733 122.174 29.2733C120.15 29.2733 117.996 28.8796 117.024 28.4592Z" fill="#1C1C1C"/>
<path d="M138.801 25.4119V22.7051H136.91C135.018 22.7051 134.019 23.4677 134.019 24.8589C134.019 25.8581 134.598 26.5152 135.752 26.5152C136.961 26.5152 138.17 25.9636 138.801 25.4119ZM136.593 20.4459H138.801V19.9727C138.801 18.449 138.328 17.5823 136.252 17.5823C134.964 17.5823 133.782 17.8446 132.521 18.5017L131.549 16.0842C132.889 15.1648 134.86 14.6118 136.673 14.6118C140.219 14.6118 142.085 16.3465 142.085 19.9455V28.8797H139.615L139.221 27.6981C137.803 28.7999 136.278 29.2474 135.044 29.2474C132.337 29.2474 130.84 27.6439 130.84 24.8858C130.84 21.9694 132.836 20.4459 136.593 20.4459Z" fill="#1C1C1C"/>
<path d="M145.234 15.0333H147.73L148.256 16.4245C149.491 15.3213 151.199 14.6128 152.671 14.6128C155.771 14.6128 157.32 16.53 157.32 19.9979V28.8794H153.801V19.8925C153.801 18.3431 153.222 17.686 151.356 17.686C150.621 17.686 149.57 17.8969 148.755 18.212V28.8792H145.234V15.0333Z" fill="#1C1C1C"/>
<path d="M167.68 21.5218L172.462 27.2503L169.808 29.3527L164.003 22.2315V28.8795H160.482V9.27754L164.003 8.64752V21.3907L169.309 14.1911L171.936 16.0312L167.68 21.5218Z" fill="#1C1C1C"/>
</g>
<defs>
<clipPath id="clip0_376_1972">
<rect width="172.46" height="38" fill="white"/>
</clipPath>
</defs>
</svg>
