<svg width="182" height="28" viewBox="0 0 182 28" fill="none" xmlns="http://www.w3.org/2000/svg">
<path d="M178.926 3.26772V7.34258H177.044V3.26772H174.935V14.4924H177.044V9.18575H178.926V14.908H181.034V3.26772H178.926ZM173.583 15.67C169.52 15.67 166.217 17.6487 166.217 20.0792C166.217 22.5096 169.529 24.4883 173.583 24.4883C177.637 24.4883 180.953 22.5096 180.953 20.0792C180.953 17.6487 177.646 15.673 173.583 15.673V15.67ZM173.583 22.6662C170.746 22.6662 168.442 21.5037 168.442 20.0792C168.442 18.6546 170.746 17.4861 173.583 17.4861C176.42 17.4861 178.733 18.6486 178.733 20.0792C178.733 21.5097 176.42 22.6692 173.58 22.6692L173.583 22.6662ZM134.431 17.9529H124.721V15.6158H122.462V22.8921C122.48 23.1869 122.612 23.4631 122.83 23.6622C123.048 23.8612 123.336 23.9674 123.631 23.9583H136.675V15.6158H134.428L134.431 17.9529ZM134.407 22.1181H124.721V19.772H134.392L134.407 22.1181ZM134.431 7.36065H130.133C129.642 4.95127 127.383 3.22254 124.736 3.22254C121.7 3.22254 119.234 5.50542 119.234 8.30934C119.234 11.1133 121.7 13.3871 124.736 13.3871C127.413 13.3871 129.672 11.6313 130.139 9.20382H134.416V14.2063H136.662V3.26772H134.416L134.431 7.36065ZM124.751 11.5921C124.097 11.6107 123.453 11.4338 122.901 11.0841C122.348 10.7344 121.912 10.2278 121.649 9.6291C121.386 9.0304 121.308 8.36684 121.424 7.72335C121.541 7.07985 121.846 6.48569 122.302 6.0169C122.758 5.5481 123.343 5.226 123.983 5.0918C124.623 4.95761 125.289 5.01742 125.895 5.2636C126.501 5.50978 127.019 5.93112 127.384 6.4737C127.749 7.01628 127.944 7.65542 127.944 8.30934C127.95 8.73656 127.873 9.16091 127.715 9.55802C127.557 9.95512 127.323 10.3172 127.025 10.6233C126.726 10.9295 126.371 11.1737 125.978 11.3421C125.585 11.5104 125.163 11.5995 124.736 11.6042L124.751 11.5921ZM146.104 17.3656H143.845V22.8831C143.863 23.1789 143.996 23.4562 144.214 23.6563C144.433 23.8564 144.721 23.9636 145.017 23.9553H158.693V22.1121H146.089L146.104 17.3656ZM141.517 15.7634H160.353V13.9292H141.502L141.517 15.7634ZM150.935 12.1131C155.073 12.1131 158.44 10.0049 158.44 7.41486C158.44 4.82477 155.073 2.7226 150.935 2.7226C146.797 2.7226 143.43 4.8308 143.43 7.41486C143.43 9.99892 146.782 12.1252 150.92 12.1252L150.935 12.1131ZM150.935 4.54168C153.847 4.54168 156.215 5.83069 156.215 7.41486C156.215 8.99902 153.847 10.2971 150.935 10.2971C148.023 10.2971 145.652 9.0171 145.652 7.42691C145.652 5.83672 148.008 4.55372 150.92 4.55372L150.935 4.54168Z" fill="#00367F"/>
<path d="M96.8955 14.4111C99.0832 13.3702 100.878 11.6533 102.015 9.51403C103.151 11.6549 104.946 13.3723 107.135 14.4111L108.189 12.9685C106.575 12.0597 105.225 10.7455 104.274 9.15564C103.247 7.24319 103.187 4.9844 103.187 4.40314V3.65924H100.889V4.40917C100.889 5.01151 100.817 7.25223 99.7717 9.15564C98.8208 10.7442 97.4711 12.0565 95.8564 12.9625L96.8955 14.4111Z" fill="#00367F"/>
<path d="M101.862 16.7994H99.6152V22.9072C99.6331 23.2038 99.7657 23.4819 99.9849 23.6825C100.204 23.8832 100.493 23.9907 100.79 23.9823H113.671V22.1362H101.862V16.7994Z" fill="#00367F"/>
<path d="M113.457 3.28882H111.207V18.3264H113.457V10.3603H116.544V8.51717H113.457V3.28882Z" fill="#00367F"/>
<path d="M53.1173 4.04773H49.6388L49.6177 4.06881L39.6639 13.2666V4.05074H37.3208L37.3238 23.9673H39.6639V14.5888L50.6718 23.9673H54.3913L42.254 13.887L53.1173 4.04773Z" fill="#00367F"/>
<path d="M88.3274 13.6552C89.8333 12.9444 91.318 11.5951 91.315 9.09841V9.0412C91.3246 8.44534 91.2149 7.85358 90.9925 7.3007C90.7701 6.74781 90.4395 6.24496 90.02 5.82166C88.8725 4.69829 87.0715 4.04474 84.8007 4.04474H76.3076V23.9643H85.1681C89.505 23.9643 92.4113 21.9344 92.4173 18.489V18.4348C92.4203 15.7664 90.5922 14.378 88.3274 13.6552ZM78.7501 14.9894H84.8157C88.2461 14.9894 89.9869 16.2121 89.9869 18.3022V18.3595C89.9869 20.5068 88.1798 21.8019 85.2073 21.8109H78.6718V6.21318H84.6019C87.4058 6.21318 88.8906 7.45702 88.8936 9.35441V9.40561C88.8936 11.6704 87.0866 12.848 84.4333 12.857H80.0241L78.7501 14.9894Z" fill="#00367F"/>
<path d="M62.83 4.04773H55.9031V23.9673H62.83C65.9532 23.9673 68.5975 22.88 70.4617 21.0881C71.409 20.1719 72.1589 19.0717 72.6654 17.8551C73.1719 16.6385 73.4243 15.3312 73.4072 14.0135V13.9563C73.4256 12.6411 73.1737 11.3361 72.667 10.1223C72.1603 8.90848 71.4097 7.81165 70.4617 6.89983C68.6035 5.1199 65.9592 4.04773 62.83 4.04773ZM70.9376 14.0617C70.9376 18.3956 67.7904 21.7416 62.83 21.7446H58.2884V6.27942H62.83C67.7873 6.27942 70.9316 9.67965 70.9376 14.0135V14.0557V14.0617Z" fill="#00367F"/>
<path d="M5.5109 6.33368C4.90855 7.53837 5.5109 10.0682 6.29696 11.2789L16.9524 28H9.16713C8.59123 27.9951 8.02433 27.8566 7.51111 27.5952C6.99788 27.3339 6.55235 26.957 6.20962 26.4942L0.400002 17.3626C0.137834 16.9013 0 16.3798 0 15.8492C0 15.3186 0.137834 14.7971 0.400002 14.3358L5.5109 6.33368Z" fill="url(#paint0_radial_376_1178)"/>
<path d="M10.0074 14.5737C9.80792 14.9304 9.69402 15.3285 9.67469 15.7367C9.65535 16.1449 9.7311 16.552 9.89596 16.9259L6.28189 11.2789C5.50787 10.0742 4.88143 7.55039 5.49583 6.33365L6.13431 5.33075C6.71256 4.42723 7.78775 3.82489 9.14603 3.82489H16.8018L10.0074 14.5737Z" fill="url(#paint1_radial_376_1178)"/>
<path d="M25.8251 21.6663C26.4274 20.4617 25.8251 17.9318 25.039 16.7211L14.3835 0H22.1719C22.7478 0.00466638 23.3148 0.143131 23.828 0.404466C24.3413 0.665801 24.7868 1.04285 25.1294 1.50586L30.939 10.6374C31.199 11.0967 31.3356 11.6155 31.3356 12.1433C31.3356 12.6711 31.199 13.1898 30.939 13.6491L25.8251 21.6663Z" fill="url(#paint2_radial_376_1178)"/>
<path d="M21.3316 13.4263C21.5306 13.0694 21.6439 12.6711 21.6627 12.2629C21.6816 11.8548 21.6053 11.4478 21.44 11.0741L25.0541 16.7211C25.8281 17.9258 26.4545 20.4466 25.8401 21.6663L25.1836 22.6692C24.6053 23.5728 23.5301 24.1751 22.1718 24.1751H14.519L21.3316 13.4263Z" fill="url(#paint3_radial_376_1178)"/>
<path d="M173.339 4.8639H169.424V3.01471H167.165V4.8639H163.196V6.62878H165.171L165.048 6.74021C164.597 7.13289 164.236 7.61738 163.987 8.16121C163.739 8.70504 163.61 9.29566 163.608 9.89349C163.608 12.3029 165.717 14.2545 168.307 14.2545C170.897 14.2545 173.005 12.2999 173.005 9.89349C173.002 9.29843 172.872 8.71087 172.624 8.16981C172.377 7.62874 172.017 7.14655 171.568 6.75527L171.442 6.64383H173.339V4.8639ZM168.307 12.5167C167.759 12.5487 167.214 12.4153 166.742 12.134C166.271 11.8527 165.895 11.4363 165.663 10.9388C165.431 10.4413 165.354 9.88563 165.441 9.34373C165.529 8.80184 165.777 8.2987 166.154 7.89951C166.531 7.50032 167.019 7.22347 167.555 7.10481C168.091 6.98615 168.65 7.03116 169.16 7.234C169.67 7.43684 170.107 7.78817 170.415 8.24248C170.723 8.69679 170.888 9.23314 170.888 9.78205C170.906 10.4865 170.645 11.1696 170.162 11.6821C169.678 12.1946 169.011 12.4946 168.307 12.5167Z" fill="#00367F"/>
<defs>
<radialGradient id="paint0_radial_376_1178" cx="0" cy="0" r="1" gradientUnits="userSpaceOnUse" gradientTransform="translate(0.248996 11.3148) rotate(-90) scale(20.6676 22.6359)">
<stop stop-color="#D3E6F6"/>
<stop offset="0.07" stop-color="#CBE2F5"/>
<stop offset="0.17" stop-color="#B5D6F1"/>
<stop offset="0.25" stop-color="#A1CBED"/>
<stop offset="0.34" stop-color="#8FBCE4"/>
<stop offset="0.53" stop-color="#5F95CB"/>
<stop offset="0.7" stop-color="#2F6EB3"/>
<stop offset="0.82" stop-color="#205CA2"/>
<stop offset="1" stop-color="#00367F"/>
</radialGradient>
<radialGradient id="paint1_radial_376_1178" cx="0" cy="0" r="1" gradientUnits="userSpaceOnUse" gradientTransform="translate(18.2892 4.08646) scale(14.5353 14.5353)">
<stop stop-color="#D3E6F6"/>
<stop offset="0.07" stop-color="#CBE2F5"/>
<stop offset="0.17" stop-color="#B5D6F1"/>
<stop offset="0.25" stop-color="#A1CBED"/>
<stop offset="0.34" stop-color="#8FBCE4"/>
<stop offset="0.53" stop-color="#5F95CB"/>
<stop offset="0.7" stop-color="#2F6EB3"/>
<stop offset="0.82" stop-color="#205CA2"/>
<stop offset="1" stop-color="#00367F"/>
</radialGradient>
<radialGradient id="paint2_radial_376_1178" cx="0" cy="0" r="1" gradientUnits="userSpaceOnUse" gradientTransform="translate(31.0872 16.6759) rotate(90) scale(20.6638 22.6318)">
<stop stop-color="#D3E6F6"/>
<stop offset="0.07" stop-color="#CBE2F5"/>
<stop offset="0.17" stop-color="#B5D6F1"/>
<stop offset="0.25" stop-color="#A1CBED"/>
<stop offset="0.34" stop-color="#8FBCE4"/>
<stop offset="0.53" stop-color="#5F95CB"/>
<stop offset="0.7" stop-color="#2F6EB3"/>
<stop offset="0.82" stop-color="#205CA2"/>
<stop offset="1" stop-color="#00367F"/>
</radialGradient>
<radialGradient id="paint3_radial_376_1178" cx="0" cy="0" r="1" gradientUnits="userSpaceOnUse" gradientTransform="translate(13.3392 23.9135) rotate(180) scale(14.5367)">
<stop stop-color="#D3E6F6"/>
<stop offset="0.07" stop-color="#CBE2F5"/>
<stop offset="0.17" stop-color="#B5D6F1"/>
<stop offset="0.25" stop-color="#A1CBED"/>
<stop offset="0.34" stop-color="#8FBCE4"/>
<stop offset="0.53" stop-color="#5F95CB"/>
<stop offset="0.7" stop-color="#2F6EB3"/>
<stop offset="0.82" stop-color="#205CA2"/>
<stop offset="1" stop-color="#00367F"/>
</radialGradient>
</defs>
</svg>
